<svg id="fronte" xmlns="http://www.w3.org/2000/svg" viewBox="0 0 142.11 33.77"><defs><style>.cls-1{fill:#4ab7a9;}.cls-2{fill:#fff;}.cls-3{fill:#5ebaa2;}</style></defs><title>logo</title><path class="cls-1" d="M97.63,52.58a7.15,7.15,0,0,1-9.84.15C86,50.94,86,48.93,86,45.51s0-5.44,1.81-7.22a6.89,6.89,0,0,1,11.53,3.85H95.79a3,3,0,0,0-3.22-2.62,2.94,2.94,0,0,0-2.24,1c-0.65.75-.85,1.61-0.85,5s0.2,4.3.85,5.06a2.93,2.93,0,0,0,2.24.93,3.21,3.21,0,0,0,2.49-1,3.44,3.44,0,0,0,.81-2.39V47.45h-3.3V44.5h6.77v2.62c0,2.59-.4,4.1-1.71,5.46" transform="translate(-45.73 -34.29)"/><polygon class="cls-1" points="63.88 20.18 61.26 20.18 55.35 2.26 58.97 2.26 62.57 13.94 66.17 2.26 69.82 2.26 63.88 20.18"/><polygon class="cls-2" points="75.52 4.7 75.52 10.16 82.97 10.16 82.97 12.61 75.52 12.61 75.52 20.18 72.8 20.18 72.8 2.26 84.25 2.26 84.25 4.7 75.52 4.7"/><rect class="cls-2" x="87.82" y="2.26" width="2.72" height="17.92"/><polygon class="cls-2" points="95.16 20.18 95.16 2.26 97.88 2.26 97.88 17.74 106.51 17.74 106.51 20.18 95.16 20.18"/><polygon class="cls-2" points="114.27 4.7 114.27 20.18 111.55 20.18 111.55 4.7 106.61 4.7 106.61 2.26 119.2 2.26 119.2 4.7 114.27 4.7"/><path class="cls-2" d="M175.16,39h-4V44.6h4a2.82,2.82,0,1,0,0-5.61m3.15,15.48-3.78-7.55h-3.4v7.55h-2.72V36.55h6.95c3.4,0,5.56,2.19,5.56,5.23a4.71,4.71,0,0,1-3.57,4.76l4.13,7.93H178.3Z" transform="translate(-45.73 -34.29)"/><rect class="cls-2" x="139.39" y="2.26" width="2.72" height="17.92"/><path class="cls-1" d="M88.17,62l-0.79,2.26h1.57Zm1.34,3.94-0.35-1h-2l-0.35,1H86l1.87-5.09h0.62l1.87,5.09H89.51Z" transform="translate(-45.73 -34.29)"/><polygon class="cls-1" points="50.29 27.21 50.29 28.77 52.41 28.77 52.41 29.46 50.29 29.46 50.29 31.61 49.52 31.61 49.52 26.52 52.77 26.52 52.77 27.21 50.29 27.21"/><rect class="cls-1" x="54.42" y="26.52" width="0.77" height="5.09"/><polygon class="cls-1" points="57.15 31.61 57.15 26.52 57.93 26.52 57.93 30.92 60.38 30.92 60.38 31.61 57.15 31.61"/><polygon class="cls-1" points="63.25 27.21 63.25 31.61 62.48 31.61 62.48 27.21 61.08 27.21 61.08 26.52 64.65 26.52 64.65 27.21 63.25 27.21"/><path class="cls-1" d="M113.93,61.5h-1.14v1.6h1.14a0.8,0.8,0,1,0,0-1.6m0.89,4.4-1.07-2.15h-1V65.9H112V60.81h2a1.46,1.46,0,0,1,1.58,1.49,1.34,1.34,0,0,1-1,1.35l1.17,2.25h-0.9Z" transform="translate(-45.73 -34.29)"/><path class="cls-1" d="M119.29,62l-0.79,2.26h1.57Zm1.34,3.94-0.35-1h-2l-0.35,1H117.1L119,60.81h0.62l1.87,5.09h-0.82Z" transform="translate(-45.73 -34.29)"/><polygon class="cls-1" points="78.52 27.21 78.52 31.61 77.75 31.61 77.75 27.21 76.34 27.21 76.34 26.52 79.92 26.52 79.92 27.21 78.52 27.21"/><rect class="cls-1" x="81.55" y="26.52" width="0.77" height="5.09"/><path class="cls-1" d="M132.46,61.77a1.07,1.07,0,0,0-1.52,0,2.14,2.14,0,0,0-.3,1.59,2.11,2.11,0,0,0,.3,1.58,1.05,1.05,0,0,0,1.52,0c0.26-.26.3-0.57,0.3-1.58s0-1.32-.3-1.59M133,65.43a1.94,1.94,0,0,1-2.63,0c-0.5-.5-0.51-1-0.51-2.07s0-1.57.51-2.08a1.94,1.94,0,0,1,2.63,0c0.5,0.5.52,1,.52,2.08s0,1.57-.52,2.07" transform="translate(-45.73 -34.29)"/><polygon class="cls-1" points="92.75 31.61 90.39 28.03 90.39 31.61 89.62 31.61 89.62 26.52 90.33 26.52 92.68 30.1 92.68 26.52 93.46 26.52 93.46 31.61 92.75 31.61"/><path class="cls-1" d="M146.07,65.94a2.32,2.32,0,0,1-1.8-.67l0.51-.51a1.72,1.72,0,0,0,1.31.49,0.86,0.86,0,0,0,1.05-.79,0.65,0.65,0,0,0-.2-0.53,1,1,0,0,0-.56-0.21l-0.6-.09a1.72,1.72,0,0,1-1-.41,1.27,1.27,0,0,1-.38-1,1.5,1.5,0,0,1,1.7-1.49,2.11,2.11,0,0,1,1.58.58l-0.49.49a1.52,1.52,0,0,0-1.12-.39,0.8,0.8,0,0,0-.92.79,0.59,0.59,0,0,0,.19.47,1,1,0,0,0,.56.23L146.54,63a1.66,1.66,0,0,1,.94.38,1.36,1.36,0,0,1,.41,1,1.58,1.58,0,0,1-1.83,1.5" transform="translate(-45.73 -34.29)"/><polygon class="cls-1" points="105.73 27.21 105.73 31.61 104.96 31.61 104.96 27.21 103.56 27.21 103.56 26.52 107.13 26.52 107.13 27.21 105.73 27.21"/><path class="cls-1" d="M156.87,61.77a1.07,1.07,0,0,0-1.52,0,2.14,2.14,0,0,0-.3,1.59,2.11,2.11,0,0,0,.3,1.58,1.05,1.05,0,0,0,1.52,0c0.26-.26.3-0.57,0.3-1.58s0-1.32-.3-1.59m0.56,3.66a1.94,1.94,0,0,1-2.63,0c-0.5-.5-0.51-1-0.51-2.07s0-1.57.51-2.08a1.94,1.94,0,0,1,2.63,0c0.5,0.5.52,1,.52,2.08s0,1.57-.52,2.07" transform="translate(-45.73 -34.29)"/><path class="cls-1" d="M161.68,61.5h-1.14v1.6h1.14a0.8,0.8,0,1,0,0-1.6m0.89,4.4-1.07-2.15h-1V65.9h-0.77V60.81h2a1.46,1.46,0,0,1,1.58,1.49,1.34,1.34,0,0,1-1,1.35l1.17,2.25h-0.9Z" transform="translate(-45.73 -34.29)"/><polygon class="cls-1" points="121.08 29.52 121.08 31.62 120.31 31.62 120.31 29.52 118.78 26.52 119.63 26.52 120.69 28.76 121.76 26.52 122.61 26.52 121.08 29.52"/><polygon class="cls-2" points="20.87 15.71 31.34 15.71 31.34 15.71 31.37 15.68 23.58 7.89 18.32 13.16 20.87 15.71"/><polygon class="cls-2" points="10.5 15.71 15.69 10.53 15.69 10.53 20.95 5.27 15.69 0 0 15.68 0.03 15.71 0.04 15.71 10.5 15.71"/><polygon class="cls-3" points="20.87 15.71 20.86 15.72 31.34 15.72 31.34 15.71 31.34 15.71 20.87 15.71"/><polygon class="cls-3" points="0.04 15.71 0.03 15.71 0.04 15.72 10.52 15.72 10.5 15.71 0.04 15.71"/><polygon class="cls-1" points="31.37 15.74 31.34 15.71 31.33 15.72 20.86 15.72 15.69 20.89 10.51 15.72 0.04 15.72 0.03 15.71 0 15.74 9.34 25.09 22.03 25.09 31.37 15.74"/><polygon class="cls-1" points="15.57 33.77 19.86 27.27 11.27 27.27 15.57 33.77"/></svg>