<?xml version="1.0" standalone="no"?>
<!DOCTYPE svg PUBLIC "-//W3C//DTD SVG 1.1//EN" "http://www.w3.org/Graphics/SVG/1.1/DTD/svg11.dtd" >
<svg xmlns="http://www.w3.org/2000/svg" xmlns:xlink="http://www.w3.org/1999/xlink" version="1.1">
<metadata>
Created by FontForge 20170731 at Tue Aug 25 19:38:12 2009
 By Aleksey,,,
2005 Albert-Jan Pool published by FSI FontShop International GmbH
</metadata>
<defs>
<font id="DINOT-BoldItalic" horiz-adv-x="516" >
  <font-face 
    font-family="DINOT-BoldItalic"
    font-weight="700"
    font-style="italic"
    font-stretch="normal"
    units-per-em="1000"
    panose-1="2 11 8 4 2 1 1 2 1 2"
    ascent="764"
    descent="-236"
    x-height="521"
    cap-height="712"
    bbox="-161 -229 1107 1005"
    underline-thickness="82"
    underline-position="-296"
    slope="-11.31"
    unicode-range="U+000D-FB02"
  />
<missing-glyph horiz-adv-x="544" 
d="M18 0v712h508v-712h-508zM100 82h344v548h-344v-548z" />
    <glyph glyph-name=".notdef" horiz-adv-x="544" 
d="M18 0v712h508v-712h-508zM100 82h344v548h-344v-548z" />
    <glyph glyph-name=".null" horiz-adv-x="0" 
 />
    <glyph glyph-name=".null" horiz-adv-x="0" 
 />
    <glyph glyph-name="nonmarkingreturn" horiz-adv-x="333" 
 />
    <glyph glyph-name="CR" unicode="&#xd;" horiz-adv-x="220" 
 />
    <glyph glyph-name="space" unicode=" " horiz-adv-x="220" 
 />
    <glyph glyph-name="exclam" unicode="!" horiz-adv-x="330" 
d="M348 712l-126 -490h-93l66 490h153zM225 133l-26 -133h-131l26 133h131z" />
    <glyph glyph-name="quotedbl" unicode="&#x22;" horiz-adv-x="441" 
d="M468 712l-43 -211h-116l43 211h116zM272 712l-42 -211h-116l42 211h116z" />
    <glyph glyph-name="numbersign" unicode="#" horiz-adv-x="666" 
d="M675 538l-23 -114h-82l-41 -116h70l-23 -114h-87l-68 -194h-132l68 194h-114l-68 -194h-132l68 194h-67l23 114h84l41 116h-71l23 114h87l63 180h132l-63 -180h114l63 180h132l-63 -180h66zM437 424h-114l-41 -116h114z" />
    <glyph glyph-name="dollar" unicode="$" horiz-adv-x="594" 
d="M608 630l-93 -81q-40 49 -114 52l-35 -185l26 -7q86 -21 123.5 -64t37.5 -115q0 -48 -15.5 -87.5t-40 -65.5t-58.5 -44.5t-68 -27t-71 -11.5l-21 -108h-96l20 110q-69 4 -117 27t-89 70l96 85q53 -63 145 -66l37 192l-29 8q-152 40 -152 166q0 97 65.5 164t179.5 76
l18 88h96l-17 -91q113 -11 172 -85zM421 213q0 37 -19 53.5t-59 25.5l-34 -181q50 8 81 35.5t31 66.5zM331 602q-45 -6 -75 -36.5t-30 -70.5q0 -50 72 -67z" />
    <glyph glyph-name="percent" unicode="%" horiz-adv-x="816" 
d="M763 257q0 -17 -3 -32l-18 -95q-26 -136 -156 -136q-51 0 -86 28t-35 82q0 17 3 32l18 95q26 136 156 136q51 0 86 -28t35 -82zM673 246q0 41 -41 41q-46 0 -57 -58l-18 -93q-2 -10 -2 -21q0 -41 41 -41q46 0 57 58l18 93q2 10 2 21zM710 712l-463 -712h-100l463 712h100
zM392 608q0 -17 -3 -32l-18 -95q-26 -136 -156 -136q-51 0 -86 28t-35 82q0 17 3 32l18 95q26 136 156 136q51 0 86 -28t35 -82zM302 597q0 41 -41 41q-46 0 -57 -58l-18 -93q-2 -10 -2 -21q0 -41 41 -41q46 0 57 58l18 93q2 10 2 21z" />
    <glyph glyph-name="ampersand" unicode="&#x26;" horiz-adv-x="690" 
d="M638 365q-27 -131 -116 -220l95 -145h-151l-39 61q-84 -67 -191 -67q-81 0 -137 43t-56 134q0 84 42 136t125 103l-4 6q-40 67 -40 118q0 30 10 60t31.5 59t63.5 47t98 18q49 0 83.5 -15.5t49.5 -40.5t21 -47.5t6 -45.5q0 -84 -99 -148l-57 -37l87 -141q42 44 60 122h118
zM368 154l-105 168q-96 -58 -96 -133q0 -37 23.5 -60.5t60.5 -23.5q60 0 117 49zM410 564q0 23 -13 36t-34 13q-35 0 -53 -23.5t-18 -54.5q0 -26 27 -68l32 20q59 37 59 77z" />
    <glyph glyph-name="quotesingle" unicode="'" horiz-adv-x="246" 
d="M273 712l-42 -211h-117l42 211h117z" />
    <glyph glyph-name="parenleft" unicode="(" horiz-adv-x="319" 
d="M358 714q-46 -40 -63 -62q-23 -32 -32 -79l-85 -424q-8 -40 -8 -60q0 -43 48 -100l-94 -83q-46 56 -62 92.5t-16 77.5q0 25 10 77l85 426q18 86 46 126q31 43 101 101z" />
    <glyph glyph-name="parenright" unicode=")" horiz-adv-x="319" 
d="M313 636q0 -25 -10 -77l-85 -426q-18 -86 -46 -126q-31 -43 -101 -101l-70 92q46 40 63 62q23 32 32 79l85 424q8 42 8 60q0 43 -48 100l94 83q46 -56 62 -92.5t16 -77.5z" />
    <glyph glyph-name="asterisk" unicode="*" horiz-adv-x="470" 
d="M479 538l-116 -35l93 -76l-57 -64l-86 83l-20 -119l-84 16l28 118l-112 -43l-28 80l116 35l-94 76l57 64l87 -82l19 118l84 -16l-27 -118l111 43z" />
    <glyph glyph-name="plus" unicode="+" 
d="M485 343l-23 -115h-153l-32 -164h-116l33 164h-152l23 115h152l33 164h115l-33 -164h153z" />
    <glyph glyph-name="comma" unicode="," horiz-adv-x="271" 
d="M184 142l-39 -197l-157 -110l62 307h134z" />
    <glyph glyph-name="hyphen" unicode="-" horiz-adv-x="405" 
d="M367 343l-23 -115h-293l23 115h293z" />
    <glyph glyph-name="period" unicode="." horiz-adv-x="271" 
d="M184 148l-29 -148h-141l30 148h140z" />
    <glyph glyph-name="slash" unicode="/" horiz-adv-x="385" 
d="M496 786l-442 -860h-120l443 860h119z" />
    <glyph glyph-name="zero" unicode="0" 
d="M517 547q0 -24 -5 -49l-57 -290q-22 -113 -88 -163.5t-149 -50.5q-80 0 -129 47.5t-49 123.5q0 24 5 49l58 290q22 113 88 163.5t149 50.5q80 0 128.5 -47.5t48.5 -123.5zM394 538q0 35 -19 52t-46 17q-83 0 -103 -99l-58 -299q-5 -27 -5 -35q0 -35 19 -52t46 -17
q83 0 103 99l59 299q4 22 4 35z" />
    <glyph glyph-name="one" unicode="1" 
d="M451 712l-142 -712h-124l114 570l-162 -117l28 143l162 116h124z" />
    <glyph glyph-name="two" unicode="2" 
d="M519 541q0 -41 -17.5 -80t-33 -57.5t-46.5 -49.5l-238 -243h262l-23 -111h-420l23 111l308 313q33 34 46.5 57t13.5 54q0 34 -18 53t-50 19q-81 0 -103 -93h-125q18 101 80 152.5t161 51.5q84 0 132 -46.5t48 -130.5z" />
    <glyph glyph-name="three" unicode="3" 
d="M511 549q0 -130 -109 -185q64 -36 64 -127q0 -102 -68.5 -172.5t-168.5 -70.5q-93 0 -147.5 46t-54.5 123q0 17 3 36h122q-2 -8 -2 -22q0 -32 20.5 -52t59.5 -20q46 0 78.5 38t32.5 89q0 78 -80 78h-19l21 108h20q44 0 74 36t30 81q0 34 -18 53t-49 19q-35 0 -63.5 -23
t-38.5 -64h-125q23 99 86 148.5t158 49.5q78 0 126 -48t48 -121z" />
    <glyph glyph-name="four" unicode="4" 
d="M487 712l-328 -491h141l27 132h118l-26 -132h65l-24 -117h-63l-21 -104h-118l20 104h-281l23 117l329 491h138z" />
    <glyph glyph-name="five" unicode="5" 
d="M542 712l-22 -111h-273l-31 -158q41 33 102 33q78 0 118.5 -47t40.5 -115q0 -36 -7 -74q-24 -125 -83 -184q-62 -62 -163 -62q-83 0 -131 46.5t-48 119.5q0 21 2 36h119q-1 -7 -1 -20q0 -71 66 -71q48 0 74 35.5t38 99.5q7 40 7 58q0 73 -64 73q-63 0 -96 -59h-112
l80 400h384z" />
    <glyph glyph-name="six" unicode="6" 
d="M468 712l-203 -300q21 6 42 6q71 0 115 -50.5t44 -133.5q0 -104 -64 -172t-165 -68q-100 0 -150.5 57t-50.5 132q0 51 18.5 94.5t63.5 112.5l213 322h137zM342 230q0 42 -21.5 65t-57.5 23q-48 0 -75.5 -37.5t-27.5 -86.5q0 -42 21 -65.5t57 -23.5q47 0 75.5 37.5
t28.5 87.5z" />
    <glyph glyph-name="seven" unicode="7" 
d="M571 712l-22 -111l-334 -601h-137l333 601h-180l-22 -109h-118l43 220h437z" />
    <glyph glyph-name="eight" unicode="8" 
d="M520 534q0 -56 -30.5 -104t-78.5 -72q59 -46 59 -131q0 -99 -65 -166t-179 -67q-86 0 -141.5 47.5t-55.5 138.5q0 63 31 114t91 81q-52 46 -52 123q0 93 64.5 156.5t166.5 63.5q84 0 137 -50t53 -134zM344 226q0 36 -21 60.5t-58 24.5q-48 0 -79.5 -34.5t-31.5 -86.5
q0 -36 21.5 -60.5t58.5 -24.5q48 0 79 34t31 87zM395 531q0 32 -18.5 54t-52.5 22q-44 0 -72.5 -33.5t-28.5 -79.5q0 -32 18.5 -53.5t52.5 -21.5q44 0 72.5 33t28.5 79z" />
    <glyph glyph-name="nine" unicode="9" 
d="M522 529q0 -51 -18.5 -94.5t-63.5 -112.5l-214 -322h-136l203 300q-21 -6 -42 -6q-71 0 -115 50.5t-44 133.5q0 104 64 172t165 68q100 0 150.5 -57t50.5 -132zM398 518q0 42 -21.5 65.5t-57.5 23.5q-47 0 -75 -37.5t-28 -87.5q0 -42 21.5 -65t57.5 -23q48 0 75.5 37.5
t27.5 86.5z" />
    <glyph glyph-name="colon" unicode=":" horiz-adv-x="294" 
d="M209 148l-30 -148h-141l30 148h141zM261 419l-29 -148h-141l30 148h140z" />
    <glyph glyph-name="semicolon" unicode=";" horiz-adv-x="294" 
d="M205 142l-39 -197l-158 -110l62 307h135zM262 419l-30 -148h-141l30 148h141z" />
    <glyph glyph-name="less" unicode="&#x3c;" 
d="M492 532l-27 -138l-264 -109l222 -117l-25 -127l-354 199l22 106z" />
    <glyph glyph-name="equal" unicode="=" 
d="M508 448l-23 -115h-422l24 115h421zM467 238l-24 -115h-421l24 115h421z" />
    <glyph glyph-name="greater" unicode="&#x3e;" 
d="M481 329l-22 -106l-426 -185l27 138l264 109l-222 117l26 127z" />
    <glyph glyph-name="question" unicode="?" horiz-adv-x="497" 
d="M518 559q0 -86 -74 -166l-89 -99q-22 -24 -28 -51l-5 -21h-124l7 31q13 60 55 105l88 94q45 49 45 94q0 26 -16 43.5t-43 17.5q-79 0 -95 -83h-125q17 98 81 146t158 48q68 0 116.5 -43.5t48.5 -115.5zM312 133l-26 -133h-131l26 133h131z" />
    <glyph glyph-name="at" unicode="@" horiz-adv-x="722" 
d="M718 541q0 -27 -9 -76l-93 -465h-113l9 46q-51 -52 -118 -52t-103.5 39t-36.5 95q0 32 14 102q16 78 31 118.5t48 71.5q50 47 125 47q72 0 109 -51l10 53q5 25 5 43q0 40 -21 64q-27 30 -85 30h-118q-67 0 -104 -33q-38 -33 -52 -104l-59 -295q-5 -22 -5 -44
q0 -27 26 -57l-97 -84q-49 55 -49 118q0 33 6 63l59 300q24 124 83 183q63 63 196 63h147q103 0 154 -56q41 -45 41 -119zM552 297q0 29 -14.5 48t-44.5 19q-44 0 -68 -31.5t-39 -102.5q-8 -37 -8 -66t14.5 -48t44.5 -19q44 0 68 31t39 102q8 37 8 67z" />
    <glyph glyph-name="A" unicode="A" horiz-adv-x="607" 
d="M552 0h-134l-15 130h-241l-67 -130h-141l388 712h105zM393 238l-34 274l-143 -274h177z" />
    <glyph glyph-name="B" unicode="B" horiz-adv-x="626" 
d="M614 547q0 -128 -116 -186q68 -43 68 -125q0 -106 -68 -171t-172 -65h-298l143 712h258q92 0 138.5 -47.5t46.5 -117.5zM433 230q0 33 -19 53t-56 20h-137l-37 -186h138q51 0 81 32t30 81zM480 525q0 70 -74 70h-126l-36 -175h127q54 0 81.5 32.5t27.5 72.5z" />
    <glyph glyph-name="C" unicode="C" horiz-adv-x="592" 
d="M597 498h-132q-1 47 -23.5 75.5t-69.5 28.5q-54 0 -95 -41q-22 -23 -37.5 -66.5t-33.5 -138.5q-20 -107 -20 -150q0 -45 26.5 -70.5t68.5 -25.5q49 0 82.5 30t49.5 74h136q-35 -108 -108 -164t-170 -56q-100 0 -159 57.5t-59 144.5q0 61 21 160q24 120 44 178t62 103
q77 81 201 81q105 0 160.5 -61.5t55.5 -158.5z" />
    <glyph glyph-name="D" unicode="D" horiz-adv-x="626" 
d="M614 513q0 -38 -23 -154q-26 -134 -47.5 -190t-66.5 -99q-73 -70 -196 -70h-253l143 712h233q94 0 152 -50t58 -149zM481 502q0 47 -26.5 70.5t-73.5 23.5h-101l-96 -480h100q64 0 104 39q22 22 37 63.5t34 140.5q22 113 22 143z" />
    <glyph glyph-name="E" unicode="E" horiz-adv-x="578" 
d="M615 712l-23 -116h-312l-36 -179h269l-23 -116h-269l-37 -185h318l-23 -116h-451l143 712h444z" />
    <glyph glyph-name="F" unicode="F" horiz-adv-x="560" 
d="M615 712l-23 -116h-312l-37 -186h267l-23 -116h-268l-59 -294h-132l143 712h444z" />
    <glyph glyph-name="G" unicode="G" horiz-adv-x="616" 
d="M602 495h-132q-2 50 -26 78.5t-69 28.5q-55 0 -96 -41q-24 -25 -38.5 -67t-34.5 -138q-20 -92 -20 -150q0 -45 27 -70.5t69 -25.5q50 0 91.5 37t54.5 106l6 31h-124l20 110h256l-19 -102q-27 -141 -98 -218q-77 -80 -197 -80q-104 0 -161.5 58.5t-57.5 143.5q0 61 21 160
q27 131 46 183t62 98q77 81 201 81q106 0 162.5 -62t56.5 -161z" />
    <glyph glyph-name="H" unicode="H" horiz-adv-x="651" 
d="M664 712l-143 -712h-132l61 302h-229l-61 -302h-132l143 712h132l-58 -294h229l58 294h132z" />
    <glyph glyph-name="I" unicode="I" horiz-adv-x="290" 
d="M303 712l-143 -712h-132l143 712h132z" />
    <glyph glyph-name="J" unicode="J" horiz-adv-x="485" 
d="M507 712l-98 -487q-14 -68 -44.5 -116.5t-69.5 -72t-74.5 -33t-71.5 -9.5q-119 0 -179 77l95 81q33 -42 87 -42q42 0 78 28.5t49 94.5l96 479h132z" />
    <glyph glyph-name="K" unicode="K" horiz-adv-x="636" 
d="M702 712l-281 -297l163 -415h-144l-125 329l-113 -110l-43 -219h-131l143 712h131l-63 -310l299 310h164z" />
    <glyph glyph-name="L" unicode="L" horiz-adv-x="550" 
d="M494 116l-23 -116h-443l143 712h132l-119 -596h310z" />
    <glyph glyph-name="M" unicode="M" horiz-adv-x="770" 
d="M783 712l-143 -712h-132l85 421l-179 -263h-89l-80 265l-85 -423h-132l143 712h124l101 -380l258 380h129z" />
    <glyph glyph-name="N" unicode="N" horiz-adv-x="677" 
d="M690 712l-143 -712h-112l-185 445l-90 -445h-132l143 712h112l186 -446l89 446h132z" />
    <glyph glyph-name="O" unicode="O" horiz-adv-x="611" 
d="M595 516q0 -60 -20 -160q-23 -118 -43.5 -177t-62.5 -103q-76 -82 -201 -82q-100 0 -157.5 58t-57.5 144q0 60 20 160q23 118 43.5 177t62.5 103q76 82 201 82q100 0 157.5 -58t57.5 -144zM463 505q0 46 -26.5 71.5t-65.5 25.5q-56 0 -95 -43q-21 -23 -36.5 -66.5
t-34.5 -136.5q-20 -100 -20 -149q0 -46 26.5 -71.5t65.5 -25.5q56 0 95 43q21 23 36.5 66.5t34.5 136.5q20 98 20 149z" />
    <glyph glyph-name="P" unicode="P" horiz-adv-x="597" 
d="M615 524q0 -102 -70.5 -175t-192.5 -73h-137l-55 -276h-132l143 712h253q89 0 140 -51.5t51 -136.5zM482 513q0 82 -80 82h-122l-41 -202h118q60 0 92.5 37t32.5 83z" />
    <glyph glyph-name="Q" unicode="Q" horiz-adv-x="611" 
d="M595 516q0 -60 -20 -160q-22 -110 -39.5 -165.5t-51.5 -97.5l48 -63l-79 -70l-50 65q-59 -31 -135 -31q-100 0 -157.5 58t-57.5 144q0 60 20 160q23 118 43.5 177t62.5 103q76 82 201 82q100 0 157.5 -58t57.5 -144zM277 191l79 70l45 -60q18 40 42 155q20 98 20 149
q0 46 -26.5 71.5t-65.5 25.5q-56 0 -95 -43q-21 -23 -36.5 -66.5t-34.5 -136.5q-20 -100 -20 -149q0 -46 26.5 -71.5t65.5 -25.5q31 0 53 11z" />
    <glyph glyph-name="R" unicode="R" horiz-adv-x="625" 
d="M615 521q0 -70 -43 -130.5t-123 -87.5l98 -303h-145l-83 288h-100l-59 -288h-132l143 712h250q101 0 147.5 -54t46.5 -137zM483 514q0 39 -21.5 60t-61.5 21h-120l-40 -197h120q61 0 92 36.5t31 79.5z" />
    <glyph glyph-name="S" unicode="S" horiz-adv-x="563" 
d="M577 632l-93 -81q-44 52 -126 52q-59 0 -95.5 -33t-36.5 -75q0 -31 20 -46t56 -24l59 -14q87 -21 124 -64.5t37 -120.5q0 -114 -82 -173t-203 -59q-84 0 -139.5 22.5t-100.5 75.5l96 84q55 -65 156 -65q59 0 100 30t41 73q0 36 -18.5 53t-56.5 26l-59 15
q-83 21 -122.5 65.5t-39.5 103.5q0 105 75.5 173t203.5 68q134 0 204 -86z" />
    <glyph glyph-name="T" unicode="T" horiz-adv-x="544" 
d="M605 712l-23 -117h-175l-119 -595h-132l119 595h-179l23 117h486z" />
    <glyph glyph-name="U" unicode="U" horiz-adv-x="635" 
d="M658 712l-94 -468q-25 -125 -102.5 -187.5t-182.5 -62.5q-93 0 -155 55.5t-62 147.5q0 26 7 61l91 454h132l-93 -462q-5 -25 -5 -44q0 -40 23.5 -67.5t70.5 -27.5q57 0 95 37.5t52 108.5l91 455h132z" />
    <glyph glyph-name="V" unicode="V" horiz-adv-x="552" 
d="M642 712l-363 -712h-104l-81 712h130l48 -472l228 472h142z" />
    <glyph glyph-name="W" unicode="W" horiz-adv-x="846" 
d="M929 712l-318 -712h-111l-37 438l-216 -438h-110l-42 712h136l16 -455l216 455h99l35 -455l192 455h140z" />
    <glyph glyph-name="X" unicode="X" horiz-adv-x="579" 
d="M647 712l-264 -352l143 -360h-148l-88 253l-180 -253h-154l280 370l-132 342h147l79 -234l163 234h154z" />
    <glyph glyph-name="Y" unicode="Y" horiz-adv-x="550" 
d="M635 712l-286 -425l-58 -287h-132l59 292l-129 420h140l76 -295l184 295h146z" />
    <glyph glyph-name="Z" unicode="Z" horiz-adv-x="526" 
d="M575 712l-21 -103l-382 -492h290l-24 -117h-450l22 105l379 490h-275l23 117h438z" />
    <glyph glyph-name="bracketleft" unicode="[" horiz-adv-x="359" 
d="M421 786l-22 -111h-116l-128 -638h126l-22 -111h-249l171 860h240z" />
    <glyph glyph-name="backslash" unicode="\" horiz-adv-x="378" 
d="M313 -74h-112l-98 847h113z" />
    <glyph glyph-name="bracketright" unicode="]" horiz-adv-x="359" 
d="M389 786l-171 -860h-240l22 110h117l128 640h-126l22 110h248z" />
    <glyph glyph-name="asciicircum" unicode="^" horiz-adv-x="581" 
d="M548 389h-124l-62 198l-141 -198h-135l236 330h122z" />
    <glyph glyph-name="underscore" unicode="_" 
d="M446 -91l-16 -82h-516l16 82h516z" />
    <glyph glyph-name="grave" unicode="`" horiz-adv-x="515" 
d="M370 601h-91l-72 167h118z" />
    <glyph glyph-name="a" unicode="a" horiz-adv-x="509" 
d="M469 382q0 -23 -5 -46l-68 -336h-119l9 46q-51 -51 -126 -51q-67 0 -108 38.5t-41 98.5q0 76 47 123q55 54 152 54h124l7 31q3 15 3 27q0 56 -77 56q-68 0 -112 -49l-64 83q68 70 193 70q76 0 130.5 -34.5t54.5 -110.5zM317 224h-95q-41 0 -65 -22.5t-24 -57.5
q0 -49 66 -49q49 0 81 32q23 23 31 66z" />
    <glyph glyph-name="b" unicode="b" horiz-adv-x="533" 
d="M501 376q0 -37 -15 -115q-15 -84 -33 -134t-51 -83q-50 -50 -133 -50q-85 0 -121 59l-10 -53h-120l142 712h124l-47 -236q44 51 121 51q63 0 103 -38t40 -113zM373 344q0 72 -63 72q-52 0 -76 -37.5t-40 -117.5q-11 -59 -11 -84q0 -72 63 -72q51 0 75.5 38t40.5 118
q11 59 11 83z" />
    <glyph glyph-name="c" unicode="c" horiz-adv-x="458" 
d="M463 455l-93 -82q-32 43 -72 43q-42 0 -74 -33q-40 -42 -55 -122q-7 -40 -7 -67q0 -42 19 -65.5t55 -23.5q47 0 91 44l69 -89q-71 -66 -172 -66q-79 0 -133 49t-54 137q0 38 8 81q14 76 42.5 130.5t65.5 82.5t75.5 40.5t81.5 12.5q97 0 153 -72z" />
    <glyph glyph-name="d" unicode="d" horiz-adv-x="533" 
d="M555 712l-142 -712h-120l11 50q-49 -56 -129 -56q-75 0 -108 43.5t-33 102.5q0 39 16 121q32 164 83 215t132 51q82 0 118 -56l48 241h124zM352 345q0 71 -62 71q-52 0 -76 -37.5t-40 -117.5q-11 -59 -11 -84q0 -72 62 -72q51 0 75.5 38t40.5 118q11 59 11 84z" />
    <glyph glyph-name="e" unicode="e" horiz-adv-x="523" 
d="M486 341q0 -47 -16 -118h-312q-4 -24 -4 -37q0 -40 22.5 -63.5t66.5 -23.5q69 0 124 53l65 -82q-82 -76 -203 -76q-78 0 -135.5 44.5t-57.5 138.5q0 91 27.5 168.5t89.5 129.5t148 52q83 0 134 -51t51 -135zM368 341q0 40 -20 62t-54 22q-88 0 -120 -119h191q3 16 3 35z
" />
    <glyph glyph-name="f" unicode="f" horiz-adv-x="325" 
d="M392 720l-21 -105h-44q-47 0 -57 -51l-12 -59h92l-19 -95h-92l-82 -410h-124l82 410h-51l19 95h51l15 72q28 143 170 143h73z" />
    <glyph glyph-name="g" unicode="g" horiz-adv-x="527" 
d="M511 521l-100 -501q-22 -109 -88.5 -163t-161.5 -54q-111 0 -173 71l86 75q36 -41 87 -41q50 0 83 30.5t44 82.5l11 53q-44 -52 -116 -52q-61 0 -102.5 38.5t-41.5 108.5q0 35 13 106q14 78 31.5 124.5t46.5 75.5q52 52 133 52q82 0 118 -59l10 53h120zM348 347
q0 69 -62 69q-46 0 -71 -34t-39 -108q-9 -48 -9 -72q0 -69 62 -69q46 0 71 34t39 108q9 48 9 72z" />
    <glyph glyph-name="h" unicode="h" horiz-adv-x="544" 
d="M501 383q0 -27 -7 -58l-65 -325h-124l64 317q4 22 4 34q0 32 -18.5 48.5t-44.5 16.5q-34 0 -64 -22.5t-41 -77.5l-64 -316h-124l142 712h124l-47 -232q52 47 128 47q55 0 96 -36.5t41 -107.5z" />
    <glyph glyph-name="i" unicode="i" horiz-adv-x="262" 
d="M243 505l-101 -505h-124l101 505h124zM285 710l-21 -103h-127l20 103h128z" />
    <glyph glyph-name="j" unicode="j" horiz-adv-x="262" 
d="M243 505l-110 -553q-14 -69 -57 -108t-111 -39h-77l21 105h45q46 0 56 53l109 542h124zM285 710l-21 -103h-127l20 103h128z" />
    <glyph glyph-name="k" unicode="k" horiz-adv-x="534" 
d="M557 521l-218 -217l138 -304h-142l-90 227l-71 -66l-32 -161h-124l142 712h124l-80 -403l206 212h147z" />
    <glyph glyph-name="l" unicode="l" horiz-adv-x="311" 
d="M280 712l-111 -555q-3 -13 -3 -22q0 -30 38 -30h51l-21 -105h-68q-55 0 -90 30.5t-35 82.5q0 24 4 43l111 556h124z" />
    <glyph glyph-name="m" unicode="m" horiz-adv-x="832" 
d="M789 383q0 -26 -6 -58l-65 -325h-124l63 317q4 22 4 34q0 32 -18 48.5t-44 16.5q-34 0 -64.5 -22.5t-41.5 -77.5l-63 -316h-124l63 317q4 22 4 34q0 32 -18 48.5t-43 16.5q-34 0 -65 -22.5t-42 -77.5l-63 -316h-124l104 521h119l-10 -50q54 56 137 56q75 0 113 -67
q63 67 163 67q58 0 101.5 -37.5t43.5 -106.5z" />
    <glyph glyph-name="n" unicode="n" horiz-adv-x="544" 
d="M501 383q0 -28 -7 -58l-65 -325h-124l64 317q4 24 4 34q0 32 -18 48.5t-44 16.5q-34 0 -64.5 -22.5t-41.5 -77.5l-64 -316h-124l104 521h119l-9 -50q51 56 137 56q52 0 92.5 -36.5t40.5 -107.5z" />
    <glyph glyph-name="o" unicode="o" horiz-adv-x="515" 
d="M477 355q0 -37 -10 -94q-16 -81 -37 -127t-56 -80q-63 -60 -160 -60q-73 0 -125 44t-52 128q0 42 11 95q16 81 37 127t56 79q62 60 160 60q72 0 124 -44t52 -128zM354 341q0 37 -18 56t-48 19q-38 0 -64 -26q-33 -32 -53 -129q-11 -55 -11 -81q0 -36 18 -55.5t48 -19.5
q38 0 64 26q35 34 53 130q11 54 11 80z" />
    <glyph glyph-name="p" unicode="p" horiz-adv-x="533" 
d="M501 383q0 -43 -16 -122q-32 -165 -83 -216t-132 -51q-82 0 -118 56l-48 -241h-124l142 712h120l-11 -50q49 56 129 56q75 0 108 -43t33 -101zM372 345q0 71 -62 71q-52 0 -76 -37.5t-40 -117.5q-11 -59 -11 -84q0 -72 62 -72q51 0 75.5 38t40.5 118q11 59 11 84z" />
    <glyph glyph-name="q" unicode="q" horiz-adv-x="533" 
d="M517 521l-142 -712h-124l46 237q-45 -52 -121 -52q-63 0 -102.5 38t-39.5 114q0 37 15 115q15 84 33 134t51 83q49 49 133 49t120 -59l11 53h120zM351 344q0 72 -62 72q-52 0 -76 -37.5t-40 -117.5q-11 -59 -11 -84q0 -72 62 -72q51 0 75.5 38t40.5 118q11 59 11 83z" />
    <glyph glyph-name="r" unicode="r" horiz-adv-x="430" 
d="M474 478l-107 -95q-24 32 -57 32q-37 0 -66.5 -27.5t-38.5 -72.5l-63 -315h-124l104 521h120l-11 -51q47 57 132 57q69 0 111 -49z" />
    <glyph glyph-name="s" unicode="s" horiz-adv-x="475" 
d="M459 463l-85 -75q-36 37 -99 37q-44 0 -67.5 -18.5t-23.5 -44.5q0 -32 48 -39l67 -11q126 -20 126 -135q0 -72 -56 -126q-58 -57 -181 -57q-129 0 -201 78l89 78q43 -50 120 -50q50 0 78 19.5t28 45.5q0 35 -49 43l-68 11q-66 11 -95.5 43.5t-29.5 74.5q0 77 53 130
q60 60 173 60q110 0 173 -64z" />
    <glyph glyph-name="t" unicode="t" horiz-adv-x="337" 
d="M341 505l-19 -94h-86l-51 -256q-2 -10 -2 -19q0 -32 40 -32h45l-21 -104h-64q-55 0 -90.5 30.5t-35.5 82.5q0 21 4 43l51 255h-53l19 94h53l31 156h124l-31 -156h86z" />
    <glyph glyph-name="u" unicode="u" horiz-adv-x="544" 
d="M528 521l-104 -521h-119l9 50q-51 -56 -136 -56q-53 0 -93.5 36.5t-40.5 108.5q0 17 7 57l65 325h124l-64 -317q-4 -22 -4 -34q0 -32 18 -48.5t44 -16.5q34 0 64.5 22.5t41.5 77.5l64 316h124z" />
    <glyph glyph-name="v" unicode="v" horiz-adv-x="469" 
d="M518 521l-285 -521h-98l-78 521h123l37 -336l168 336h133z" />
    <glyph glyph-name="w" unicode="w" horiz-adv-x="719" 
d="M765 521l-249 -521h-98l-41 331l-171 -331h-100l-49 521h124l18 -325l165 325h90l38 -325l142 325h131z" />
    <glyph glyph-name="x" unicode="x" horiz-adv-x="502" 
d="M531 521l-210 -259l123 -262h-143l-65 163l-121 -163h-153l221 269l-118 252h143l61 -155l111 155h151z" />
    <glyph glyph-name="y" unicode="y" horiz-adv-x="464" 
d="M515 521l-325 -605q-20 -38 -43 -61q-46 -46 -124 -46h-48l23 112h28q26 0 41 12.5t30 41.5l33 62l-74 484h123l38 -336l167 336h131z" />
    <glyph glyph-name="z" unicode="z" horiz-adv-x="461" 
d="M470 521l-19 -95l-279 -315h223l-22 -111h-386l19 95l277 315h-208l22 111h373z" />
    <glyph glyph-name="braceleft" unicode="{" horiz-adv-x="435" 
d="M495 786l-22 -111h-46q-44 0 -59.5 -15t-24.5 -61l-29 -143q-16 -81 -86 -98q48 -23 48 -78q0 -14 -3 -29l-27 -136q-5 -27 -5 -40q0 -22 13 -30t44 -8h57l-22 -111h-96q-64 0 -94.5 35.5t-30.5 83.5q0 17 4 37l30 147q3 15 3 27t-5 24q-13 28 -51 28h-42l23 110h43
q32 0 54 19q19 16 28 60l28 141q16 79 58 115q39 33 112 33h98z" />
    <glyph glyph-name="bar" unicode="|" horiz-adv-x="333" 
d="M334 786l-172 -860h-123l171 860h124z" />
    <glyph glyph-name="braceright" unicode="}" horiz-adv-x="435" 
d="M424 404l-23 -110h-43q-32 0 -54 -19q-19 -16 -28 -60l-28 -141q-16 -79 -58 -115q-39 -33 -112 -33h-98l22 111h46q44 0 59.5 15t24.5 61l29 143q16 81 86 98q-48 23 -48 78q0 14 3 29l27 136q5 27 5 40q0 22 -13 30t-44 8h-57l22 111h96q64 0 94.5 -35.5t30.5 -83.5
q0 -17 -4 -37l-30 -147q-3 -15 -3 -27t5 -24q13 -28 51 -28h42z" />
    <glyph glyph-name="asciitilde" unicode="~" horiz-adv-x="576" 
d="M549 277q-84 -77 -169 -77q-52 0 -107 32q-41 24 -76 24q-47 0 -94 -43l-65 84q84 77 170 77q52 0 107 -32q41 -24 75 -24q50 0 95 42z" />
    <glyph glyph-name="uni00A0" unicode="&#xa0;" horiz-adv-x="220" 
 />
    <glyph glyph-name="exclamdown" unicode="&#xa1;" horiz-adv-x="330" 
d="M203 299l-66 -490h-153l126 490h93zM264 521l-26 -133h-131l26 133h131z" />
    <glyph glyph-name="cent" unicode="&#xa2;" horiz-adv-x="484" 
d="M507 547l-91 -75q-20 34 -59 42l-59 -299q41 6 77 42l68 -83q-36 -33 -70 -49.5t-84 -23.5l-20 -101h-96l21 105q-56 14 -95 66t-39 128q0 121 62 218t174 110l17 85h96l-17 -86q76 -18 115 -79zM287 514q-33 -10 -59 -50q-44 -68 -44 -157q0 -73 46 -89z" />
    <glyph glyph-name="sterling" unicode="&#xa3;" horiz-adv-x="551" 
d="M580 643l-98 -84q-27 42 -81 42q-104 0 -129 -121l-17 -86h109l-19 -94h-108l-37 -183h284l-23 -117h-416l60 300h-58l18 94h58l19 91q23 110 86.5 171.5t183.5 61.5q110 0 168 -75z" />
    <glyph glyph-name="currency" unicode="&#xa4;" horiz-adv-x="669" 
d="M605 95l-80 -80l-72 72q-53 -33 -118 -33q-64 0 -119 33l-72 -72l-80 80l72 72q-33 55 -33 119q0 65 33 118l-72 72l80 80l72 -72q55 33 119 33q65 0 118 -33l72 72l80 -80l-72 -72q33 -53 33 -118q0 -64 -33 -119zM456 286q0 50 -35.5 85.5t-85.5 35.5t-86 -35.5
t-36 -85.5t36 -86t86 -36t85.5 36t35.5 86z" />
    <glyph glyph-name="yen" unicode="&#xa5;" horiz-adv-x="550" 
d="M635 712l-186 -276h74l-19 -94h-118l-37 -55l-10 -46h145l-19 -94h-144l-30 -147h-132l30 147h-143l19 94h142l11 51l-15 50h-118l18 94h70l-84 276h140l76 -295l184 295h146z" />
    <glyph glyph-name="brokenbar" unicode="&#xa6;" horiz-adv-x="336" 
d="M334 786l-70 -350h-124l70 350h124zM232 276l-70 -350h-123l69 350h124z" />
    <glyph glyph-name="section" unicode="&#xa7;" horiz-adv-x="504" 
d="M484 575q0 -12 -2 -24h-111q5 61 -57 61q-36 0 -56 -21t-20 -52q0 -39 51 -59l53 -21q43 -17 72 -56t29 -92q0 -135 -116 -197q54 -39 54 -117q0 -79 -53.5 -136.5t-161.5 -57.5q-69 0 -114.5 39t-45.5 104q0 19 1 29h115q-3 -28 12.5 -45.5t47.5 -17.5q33 0 56.5 20
t23.5 60q0 45 -53 67l-52 21q-45 18 -73 56t-28 92q0 63 30.5 116t87.5 81q-51 42 -51 114t53 125.5t150 53.5q75 0 116.5 -40.5t41.5 -102.5zM328 297q0 34 -18 49.5t-43 15.5q-31 0 -55 -21q-29 -25 -38 -72q-3 -15 -3 -27q0 -34 18.5 -49.5t41.5 -15.5q33 0 56 20
q29 25 38 72q3 15 3 28z" />
    <glyph glyph-name="dieresis" unicode="&#xa8;" horiz-adv-x="514" 
d="M507 725l-24 -122h-106l24 122h106zM298 725l-24 -122h-106l24 122h106z" />
    <glyph glyph-name="copyright" unicode="&#xa9;" horiz-adv-x="801" 
d="M764 356q0 -142 -101 -243t-243 -101t-243 101t-101 243t101 243t243 101t243 -101t101 -243zM682 356q0 114 -75.5 190.5t-186.5 76.5t-186 -76.5t-75 -190.5t75 -190.5t186 -76.5t186.5 76.5t75.5 190.5zM552 219q-55 -49 -124 -49q-74 0 -122.5 49t-48.5 137t48.5 137
t122.5 49q67 0 124 -49l-53 -53q-35 30 -71 30q-44 0 -67.5 -30.5t-23.5 -83.5t23.5 -83.5t67.5 -30.5q36 0 71 30z" />
    <glyph glyph-name="ordfeminine" unicode="&#xaa;" horiz-adv-x="431" 
d="M439 601q0 -15 -4 -37l-54 -268h-96l7 36q-37 -40 -101 -40q-53 0 -85.5 31.5t-32.5 80.5q0 60 40 98q42 41 119 41h99l4 24q3 15 3 22q0 44 -61 44q-54 0 -89 -38l-52 67q57 55 155 55q61 0 104.5 -27.5t43.5 -88.5zM317 475h-76q-33 0 -52 -18t-19 -44q0 -40 54 -40
q39 0 64 25q17 17 24 52z" />
    <glyph glyph-name="guillemotleft" unicode="&#xab;" horiz-adv-x="597" 
d="M588 521l-33 -160l-111 -96l73 -96l-27 -142l-189 249zM323 521l-33 -160l-111 -96l73 -96l-27 -142l-189 249z" />
    <glyph glyph-name="logicalnot" unicode="&#xac;" 
d="M493 359l-53 -264h-115l30 149h-313l23 115h428z" />
    <glyph glyph-name="uni00AD" unicode="&#xad;" horiz-adv-x="405" 
d="M367 343l-23 -115h-293l23 115h293z" />
    <glyph glyph-name="registered" unicode="&#xae;" horiz-adv-x="801" 
d="M764 356q0 -142 -101 -243t-243 -101t-243 101t-101 243t101 243t243 101t243 -101t101 -243zM682 356q0 114 -75.5 190.5t-186.5 76.5t-186.5 -76.5t-75.5 -190.5t75.5 -190.5t186.5 -76.5t186.5 76.5t75.5 190.5zM575 173h-93l-66 141h-39v-141h-82v366h149
q54 0 87.5 -33.5t33.5 -81.5q0 -36 -18.5 -61t-47.5 -36zM484 424q0 20 -14.5 34t-36.5 14h-56v-94h56q22 0 36.5 13t14.5 33z" />
    <glyph glyph-name="macron" unicode="&#xaf;" horiz-adv-x="508" 
d="M496 701l-16 -82h-302l17 82h301z" />
    <glyph glyph-name="degree" unicode="&#xb0;" horiz-adv-x="460" 
d="M465 542q0 -76 -50.5 -127t-127.5 -51t-127.5 51t-50.5 127q0 77 51 128t127 51t127 -51t51 -128zM366 542q0 34 -23 57t-56 23t-56 -23t-23 -57t23 -57t56 -23t56 23t23 57z" />
    <glyph glyph-name="plusminus" unicode="&#xb1;" 
d="M508 451l-23 -114h-153l-33 -165h-116l33 165h-152l23 114h152l33 164h116l-33 -164h153zM442 115l-23 -115h-421l23 115h421z" />
    <glyph glyph-name="twosuperior" unicode="&#xb2;" horiz-adv-x="316" 
d="M343 606q0 -37 -18.5 -66t-55.5 -64l-117 -111h150l-16 -80h-262l16 80l177 169q36 35 36 65q0 37 -34 37q-41 0 -49 -46h-90q24 126 148 126q55 0 85 -29.5t30 -80.5z" />
    <glyph glyph-name="threesuperior" unicode="&#xb3;" horiz-adv-x="316" 
d="M345 605q0 -72 -63 -104q33 -25 33 -79q0 -62 -41 -101.5t-109 -39.5q-62 0 -92.5 28.5t-30.5 69.5q0 23 2 32h89q-6 -50 38 -50q22 0 37.5 16.5t15.5 43.5q0 44 -39 44h-12l16 76h9q29 0 42.5 18t13.5 40q0 18 -9.5 27.5t-23.5 9.5q-41 0 -50 -45h-90q24 125 150 125
q51 0 82.5 -30.5t31.5 -80.5z" />
    <glyph glyph-name="acute" unicode="&#xb4;" horiz-adv-x="508" 
d="M501 768l-130 -167h-100l111 167h119z" />
    <glyph glyph-name="mu" unicode="&#xb5;" horiz-adv-x="548" 
d="M531 521l-104 -521h-119l10 50q-54 -56 -137 -56q-25 0 -40 15l-40 -200h-124l142 712h124l-64 -317q-3 -16 -3 -34q0 -32 18 -48.5t43 -16.5q34 0 65 22.5t42 77.5l63 316h124z" />
    <glyph glyph-name="paragraph" unicode="&#xb6;" horiz-adv-x="636" 
d="M648 712l-181 -903h-123l157 787h-95l-158 -787h-123l103 518q-54 4 -99.5 51.5t-45.5 124.5q0 86 63.5 147.5t189.5 61.5h312z" />
    <glyph glyph-name="periodcentered" unicode="&#xb7;" horiz-adv-x="271" 
d="M226 356l-28 -141h-141l28 141h141z" />
    <glyph glyph-name="cedilla" unicode="&#xb8;" horiz-adv-x="515" 
d="M257 -57l-70 -144h-113l86 144h97z" />
    <glyph glyph-name="onesuperior" unicode="&#xb9;" horiz-adv-x="316" 
d="M310 712l-85 -427h-90l64 321l-101 -73l22 107l101 72h89z" />
    <glyph glyph-name="ordmasculine" unicode="&#xba;" horiz-adv-x="439" 
d="M441 580q0 -38 -8 -76q-21 -114 -75 -165q-51 -48 -127 -48q-55 0 -98 35t-43 104q0 36 8 74q22 115 74 165q51 48 128 48q55 0 98 -34t43 -103zM342 568q0 59 -52 59q-33 0 -52 -21q-26 -26 -41 -102q-8 -40 -8 -64q0 -59 51 -59q33 0 53 22q25 25 40 101q9 45 9 64z
" />
    <glyph glyph-name="guillemotright" unicode="&#xbb;" horiz-adv-x="597" 
d="M570 273l-287 -246l32 160l111 96l-73 97l28 141zM305 273l-287 -246l32 160l112 96l-74 97l28 141z" />
    <glyph glyph-name="onequarter" unicode="&#xbc;" horiz-adv-x="832" 
d="M310 712l-85 -427h-90l64 321l-101 -73l22 107l101 72h89zM717 712l-462 -712h-100l463 712h99zM785 141l-16 -81h-33l-12 -60h-85l12 60h-170l15 81l193 286h100l-194 -286h71l13 66h86l-14 -66h34z" />
    <glyph glyph-name="onehalf" unicode="&#xbd;" horiz-adv-x="832" 
d="M310 712l-85 -427h-90l64 321l-101 -73l22 107l101 72h89zM717 712l-462 -712h-100l463 712h99zM804 321q0 -61 -68 -124l-125 -117h151l-16 -80h-263l17 80l177 169q36 35 36 65q0 37 -34 37q-41 0 -49 -46h-90q24 126 148 126q55 0 85.5 -29.5t30.5 -80.5z" />
    <glyph glyph-name="threequarters" unicode="&#xbe;" horiz-adv-x="832" 
d="M345 606q0 -72 -63 -104q33 -26 33 -79q0 -63 -41 -102t-109 -39q-62 0 -92.5 28.5t-30.5 69.5q0 12 2 32h89q-6 -50 38 -50q22 0 37.5 16.5t15.5 43.5q0 44 -39 44h-11l15 76h10q29 0 42 18t13 40q0 37 -32 37q-42 0 -51 -46h-90q22 126 151 126q50 0 81.5 -31t31.5 -80
zM717 712l-462 -712h-100l463 712h99zM785 141l-16 -81h-33l-12 -60h-85l12 60h-170l15 81l193 286h100l-194 -286h71l13 66h86l-14 -66h34z" />
    <glyph glyph-name="questiondown" unicode="&#xbf;" horiz-adv-x="497" 
d="M386 -3q-17 -98 -80.5 -146t-157.5 -48q-68 0 -116.5 43.5t-48.5 115.5q0 87 74 167l89 98q22 24 28 51l4 22h124l-7 -32q-13 -61 -54 -105l-89 -94q-44 -48 -44 -94q0 -26 16 -43.5t43 -17.5q79 0 95 83h124zM345 521l-25 -133h-131l26 133h130z" />
    <glyph glyph-name="Agrave" unicode="&#xc0;" horiz-adv-x="607" 
d="M552 0h-134l-15 130h-241l-67 -130h-141l388 712h105zM393 238l-34 274l-143 -274h177zM446 778h-92l-71 168h118z" />
    <glyph glyph-name="Aacute" unicode="&#xc1;" horiz-adv-x="607" 
d="M552 0h-134l-15 130h-241l-67 -130h-141l388 712h105zM393 238l-34 274l-143 -274h177zM577 946l-131 -168h-99l110 168h120z" />
    <glyph glyph-name="Acircumflex" unicode="&#xc2;" horiz-adv-x="607" 
d="M552 0h-134l-15 130h-241l-67 -130h-141l388 712h105zM393 238l-34 274l-143 -274h177zM575 778h-92l-59 94l-99 -94h-101l159 170h100z" />
    <glyph glyph-name="Atilde" unicode="&#xc3;" horiz-adv-x="607" 
d="M552 0h-134l-15 130h-241l-67 -130h-141l388 712h105zM393 238l-34 274l-143 -274h177zM587 842q-55 -52 -111 -52q-40 0 -77 22q-28 17 -53 17q-29 0 -62 -31l-45 60q57 52 111 52q40 0 77 -22q28 -17 53 -17q30 0 62 30z" />
    <glyph glyph-name="Adieresis" unicode="&#xc4;" horiz-adv-x="607" 
d="M552 0h-134l-15 130h-241l-67 -130h-141l388 712h105zM393 238l-34 274l-143 -274h177zM582 902l-24 -122h-106l24 122h106zM373 902l-24 -122h-106l24 122h106z" />
    <glyph glyph-name="Aring" unicode="&#xc5;" horiz-adv-x="607" 
d="M552 0h-134l-15 130h-241l-67 -130h-141l388 712h105zM393 238l-34 274l-143 -274h177zM528 878q0 -54 -37 -90.5t-89 -36.5q-53 0 -90 36.5t-37 90.5t37 90.5t90 36.5q52 0 89 -36.5t37 -90.5zM460 878q0 24 -17.5 41t-40.5 17t-40.5 -17t-17.5 -41t17.5 -41t40.5 -17
t40.5 17t17.5 41z" />
    <glyph glyph-name="AE" unicode="&#xc6;" horiz-adv-x="940" 
d="M977 712l-23 -115h-313l-35 -181h268l-23 -115h-269l-37 -186h317l-23 -115h-449l32 163h-212l-112 -163h-146l496 712h529zM509 596l-223 -323h159z" />
    <glyph glyph-name="Ccedilla" unicode="&#xc7;" horiz-adv-x="592" 
d="M597 498h-132q-1 47 -23.5 75.5t-69.5 28.5q-54 0 -95 -41q-22 -23 -37.5 -66.5t-33.5 -138.5q-20 -107 -20 -150q0 -45 26.5 -70.5t68.5 -25.5q49 0 82.5 30t49.5 74h136q-35 -108 -108 -164t-170 -56q-100 0 -159 57.5t-59 144.5q0 61 21 160q24 120 44 178t62 103
q77 81 201 81q105 0 160.5 -61.5t55.5 -158.5zM316 -57l-70 -144h-113l86 144h97z" />
    <glyph glyph-name="Egrave" unicode="&#xc8;" horiz-adv-x="578" 
d="M615 712l-23 -116h-312l-36 -179h269l-23 -116h-269l-37 -185h318l-23 -116h-451l143 712h444zM435 778h-92l-71 168h118z" />
    <glyph glyph-name="Eacute" unicode="&#xc9;" horiz-adv-x="578" 
d="M615 712l-23 -116h-312l-36 -179h269l-23 -116h-269l-37 -185h318l-23 -116h-451l143 712h444zM566 946l-131 -168h-99l110 168h120z" />
    <glyph glyph-name="Ecircumflex" unicode="&#xca;" horiz-adv-x="578" 
d="M615 712l-23 -116h-312l-36 -179h269l-23 -116h-269l-37 -185h318l-23 -116h-451l143 712h444zM564 778h-92l-59 94l-99 -94h-101l159 170h100z" />
    <glyph glyph-name="Edieresis" unicode="&#xcb;" horiz-adv-x="578" 
d="M615 712l-23 -116h-312l-36 -179h269l-23 -116h-269l-37 -185h318l-23 -116h-451l143 712h444zM571 902l-24 -122h-106l24 122h106zM362 902l-24 -122h-106l24 122h106z" />
    <glyph glyph-name="Igrave" unicode="&#xcc;" horiz-adv-x="290" 
d="M303 712l-143 -712h-132l143 712h132zM302 778h-92l-71 168h118z" />
    <glyph glyph-name="Iacute" unicode="&#xcd;" horiz-adv-x="290" 
d="M303 712l-143 -712h-132l143 712h132zM421 946l-131 -168h-99l110 168h120z" />
    <glyph glyph-name="Icircumflex" unicode="&#xce;" horiz-adv-x="290" 
d="M303 712l-143 -712h-132l143 712h132zM419 778h-92l-59 94l-99 -94h-101l159 170h100z" />
    <glyph glyph-name="Idieresis" unicode="&#xcf;" horiz-adv-x="290" 
d="M303 712l-143 -712h-132l143 712h132zM426 902l-24 -122h-106l24 122h106zM217 902l-24 -122h-106l24 122h106z" />
    <glyph glyph-name="Eth" unicode="&#xd0;" horiz-adv-x="648" 
d="M636 513q0 -38 -23 -154q-26 -134 -47.5 -190t-66.5 -99q-73 -70 -196 -70h-253l62 309h-66l20 100h66l61 303h233q94 0 152 -50t58 -149zM503 502q0 47 -26.5 70.5t-73.5 23.5h-101l-38 -187h110l-20 -100h-110l-39 -193h100q66 0 106 39q22 21 36.5 62.5t33.5 141.5
q22 113 22 143z" />
    <glyph glyph-name="Ntilde" unicode="&#xd1;" horiz-adv-x="677" 
d="M690 712l-143 -712h-112l-185 445l-90 -445h-132l143 712h112l186 -446l89 446h132zM606 842q-55 -52 -111 -52q-40 0 -77 22q-28 17 -53 17q-29 0 -62 -31l-45 60q57 52 111 52q40 0 77 -22q28 -17 53 -17q30 0 62 30z" />
    <glyph glyph-name="Ograve" unicode="&#xd2;" horiz-adv-x="611" 
d="M595 516q0 -60 -20 -160q-23 -118 -43.5 -177t-62.5 -103q-76 -82 -201 -82q-100 0 -157.5 58t-57.5 144q0 60 20 160q23 118 43.5 177t62.5 103q76 82 201 82q100 0 157.5 -58t57.5 -144zM463 505q0 46 -26.5 71.5t-65.5 25.5q-56 0 -95 -43q-21 -23 -36.5 -66.5
t-34.5 -136.5q-20 -100 -20 -149q0 -46 26.5 -71.5t65.5 -25.5q56 0 95 43q21 23 36.5 66.5t34.5 136.5q20 98 20 149zM446 778h-92l-71 168h118z" />
    <glyph glyph-name="Oacute" unicode="&#xd3;" horiz-adv-x="611" 
d="M595 516q0 -60 -20 -160q-23 -118 -43.5 -177t-62.5 -103q-76 -82 -201 -82q-100 0 -157.5 58t-57.5 144q0 60 20 160q23 118 43.5 177t62.5 103q76 82 201 82q100 0 157.5 -58t57.5 -144zM463 505q0 46 -26.5 71.5t-65.5 25.5q-56 0 -95 -43q-21 -23 -36.5 -66.5
t-34.5 -136.5q-20 -100 -20 -149q0 -46 26.5 -71.5t65.5 -25.5q56 0 95 43q21 23 36.5 66.5t34.5 136.5q20 98 20 149zM577 946l-131 -168h-99l110 168h120z" />
    <glyph glyph-name="Ocircumflex" unicode="&#xd4;" horiz-adv-x="611" 
d="M595 516q0 -60 -20 -160q-23 -118 -43.5 -177t-62.5 -103q-76 -82 -201 -82q-100 0 -157.5 58t-57.5 144q0 60 20 160q23 118 43.5 177t62.5 103q76 82 201 82q100 0 157.5 -58t57.5 -144zM463 505q0 46 -26.5 71.5t-65.5 25.5q-56 0 -95 -43q-21 -23 -36.5 -66.5
t-34.5 -136.5q-20 -100 -20 -149q0 -46 26.5 -71.5t65.5 -25.5q56 0 95 43q21 23 36.5 66.5t34.5 136.5q20 98 20 149zM575 778h-92l-59 94l-99 -94h-101l159 170h100z" />
    <glyph glyph-name="Otilde" unicode="&#xd5;" horiz-adv-x="611" 
d="M595 516q0 -60 -20 -160q-23 -118 -43.5 -177t-62.5 -103q-76 -82 -201 -82q-100 0 -157.5 58t-57.5 144q0 60 20 160q23 118 43.5 177t62.5 103q76 82 201 82q100 0 157.5 -58t57.5 -144zM463 505q0 46 -26.5 71.5t-65.5 25.5q-56 0 -95 -43q-21 -23 -36.5 -66.5
t-34.5 -136.5q-20 -100 -20 -149q0 -46 26.5 -71.5t65.5 -25.5q56 0 95 43q21 23 36.5 66.5t34.5 136.5q20 98 20 149zM587 842q-55 -52 -111 -52q-40 0 -77 22q-28 17 -53 17q-29 0 -62 -31l-45 60q57 52 111 52q40 0 77 -22q28 -17 53 -17q30 0 62 30z" />
    <glyph glyph-name="Odieresis" unicode="&#xd6;" horiz-adv-x="611" 
d="M595 516q0 -60 -20 -160q-23 -118 -43.5 -177t-62.5 -103q-76 -82 -201 -82q-100 0 -157.5 58t-57.5 144q0 60 20 160q23 118 43.5 177t62.5 103q76 82 201 82q100 0 157.5 -58t57.5 -144zM463 505q0 46 -26.5 71.5t-65.5 25.5q-56 0 -95 -43q-21 -23 -36.5 -66.5
t-34.5 -136.5q-20 -100 -20 -149q0 -46 26.5 -71.5t65.5 -25.5q56 0 95 43q21 23 36.5 66.5t34.5 136.5q20 98 20 149zM582 902l-24 -122h-106l24 122h106zM373 902l-24 -122h-106l24 122h106z" />
    <glyph glyph-name="multiply" unicode="&#xd7;" 
d="M504 422l-162 -141l107 -140l-90 -78l-106 142l-162 -141l-66 86l162 140l-107 141l91 78l106 -141l161 140z" />
    <glyph glyph-name="Oslash" unicode="&#xd8;" horiz-adv-x="611" 
d="M595 516q0 -60 -20 -160q-23 -118 -43.5 -177t-62.5 -103q-76 -82 -201 -82q-64 0 -112 25l-41 -63h-96l75 114q-41 53 -41 126q0 60 20 160q23 118 43.5 177t62.5 103q76 82 201 82q63 0 114 -27l42 65h96l-76 -117q39 -53 39 -123zM185 207v-5l244 381q-25 19 -58 19
q-56 0 -95 -43q-21 -23 -36.5 -66.5t-34.5 -136.5q-20 -100 -20 -149zM463 505v3l-244 -380q24 -18 58 -18q56 0 95 43q21 23 36.5 66.5t34.5 136.5q20 98 20 149z" />
    <glyph glyph-name="Ugrave" unicode="&#xd9;" horiz-adv-x="635" 
d="M658 712l-94 -468q-25 -125 -102.5 -187.5t-182.5 -62.5q-93 0 -155 55.5t-62 147.5q0 26 7 61l91 454h132l-93 -462q-5 -25 -5 -44q0 -40 23.5 -67.5t70.5 -27.5q57 0 95 37.5t52 108.5l91 455h132zM462 778h-92l-71 168h118z" />
    <glyph glyph-name="Uacute" unicode="&#xda;" horiz-adv-x="635" 
d="M658 712l-94 -468q-25 -125 -102.5 -187.5t-182.5 -62.5q-93 0 -155 55.5t-62 147.5q0 26 7 61l91 454h132l-93 -462q-5 -25 -5 -44q0 -40 23.5 -67.5t70.5 -27.5q57 0 95 37.5t52 108.5l91 455h132zM593 946l-131 -168h-99l110 168h120z" />
    <glyph glyph-name="Ucircumflex" unicode="&#xdb;" horiz-adv-x="635" 
d="M658 712l-94 -468q-25 -125 -102.5 -187.5t-182.5 -62.5q-93 0 -155 55.5t-62 147.5q0 26 7 61l91 454h132l-93 -462q-5 -25 -5 -44q0 -40 23.5 -67.5t70.5 -27.5q57 0 95 37.5t52 108.5l91 455h132zM592 778h-92l-59 94l-99 -94h-101l159 170h100z" />
    <glyph glyph-name="Udieresis" unicode="&#xdc;" horiz-adv-x="635" 
d="M658 712l-94 -468q-25 -125 -102.5 -187.5t-182.5 -62.5q-93 0 -155 55.5t-62 147.5q0 26 7 61l91 454h132l-93 -462q-5 -25 -5 -44q0 -40 23.5 -67.5t70.5 -27.5q57 0 95 37.5t52 108.5l91 455h132zM598 902l-24 -122h-106l24 122h106zM389 902l-24 -122h-106l24 122
h106z" />
    <glyph glyph-name="Yacute" unicode="&#xdd;" horiz-adv-x="550" 
d="M635 712l-286 -425l-58 -287h-132l59 292l-129 420h140l76 -295l184 295h146zM538 946l-131 -168h-99l110 168h120z" />
    <glyph glyph-name="Thorn" unicode="&#xde;" horiz-adv-x="601" 
d="M588 390q0 -101 -71 -174.5t-193 -73.5h-136l-28 -142h-132l143 712h132l-27 -134h120q89 0 140.5 -51.5t51.5 -136.5zM455 379q0 82 -80 82h-122l-41 -202h118q60 0 92.5 37t32.5 83z" />
    <glyph glyph-name="germandbls" unicode="&#xdf;" horiz-adv-x="547" 
d="M551 565q0 -41 -21 -79.5t-63 -60.5q41 -25 41 -76q0 -13 -3 -28l-30 -160q-16 -84 -60.5 -122.5t-123.5 -38.5h-59l21 104h27q24 0 45 16q20 16 27 50l29 148q2 16 2 20q0 41 -46 41h-31l20 97h29q33 0 52 23t19 54q0 24 -12 37q-18 21 -58 21q-50 0 -75 -24.5
t-35 -72.5l-103 -514h-125l105 524q21 106 83 150t164 44q82 0 131.5 -40t49.5 -113z" />
    <glyph glyph-name="agrave" unicode="&#xe0;" horiz-adv-x="509" 
d="M469 382q0 -23 -5 -46l-68 -336h-119l9 46q-51 -51 -126 -51q-67 0 -108 38.5t-41 98.5q0 76 47 123q55 54 152 54h124l7 31q3 15 3 27q0 56 -77 56q-68 0 -112 -49l-64 83q68 70 193 70q76 0 130.5 -34.5t54.5 -110.5zM317 224h-95q-41 0 -65 -22.5t-24 -57.5
q0 -49 66 -49q49 0 81 32q23 23 31 66zM359 601h-91l-72 167h118z" />
    <glyph glyph-name="aacute" unicode="&#xe1;" horiz-adv-x="509" 
d="M469 382q0 -23 -5 -46l-68 -336h-119l9 46q-51 -51 -126 -51q-67 0 -108 38.5t-41 98.5q0 76 47 123q55 54 152 54h124l7 31q3 15 3 27q0 56 -77 56q-68 0 -112 -49l-64 83q68 70 193 70q76 0 130.5 -34.5t54.5 -110.5zM317 224h-95q-41 0 -65 -22.5t-24 -57.5
q0 -49 66 -49q49 0 81 32q23 23 31 66zM490 768l-130 -167h-100l111 167h119z" />
    <glyph glyph-name="acircumflex" unicode="&#xe2;" horiz-adv-x="509" 
d="M469 382q0 -23 -5 -46l-68 -336h-119l9 46q-51 -51 -126 -51q-67 0 -108 38.5t-41 98.5q0 76 47 123q55 54 152 54h124l7 31q3 15 3 27q0 56 -77 56q-68 0 -112 -49l-64 83q68 70 193 70q76 0 130.5 -34.5t54.5 -110.5zM317 224h-95q-41 0 -65 -22.5t-24 -57.5
q0 -49 66 -49q49 0 81 32q23 23 31 66zM488 601h-91l-60 94l-98 -94h-101l159 169h99z" />
    <glyph glyph-name="atilde" unicode="&#xe3;" horiz-adv-x="509" 
d="M469 382q0 -23 -5 -46l-68 -336h-119l9 46q-51 -51 -126 -51q-67 0 -108 38.5t-41 98.5q0 76 47 123q55 54 152 54h124l7 31q3 15 3 27q0 56 -77 56q-68 0 -112 -49l-64 83q68 70 193 70q76 0 130.5 -34.5t54.5 -110.5zM317 224h-95q-41 0 -65 -22.5t-24 -57.5
q0 -49 66 -49q49 0 81 32q23 23 31 66zM499 659q-55 -52 -111 -52q-40 0 -77 22q-28 17 -52 17q-31 0 -62 -31l-45 60q55 52 110 52q40 0 77 -22q28 -17 53 -17q30 0 62 30z" />
    <glyph glyph-name="adieresis" unicode="&#xe4;" horiz-adv-x="509" 
d="M469 382q0 -23 -5 -46l-68 -336h-119l9 46q-51 -51 -126 -51q-67 0 -108 38.5t-41 98.5q0 76 47 123q55 54 152 54h124l7 31q3 15 3 27q0 56 -77 56q-68 0 -112 -49l-64 83q68 70 193 70q76 0 130.5 -34.5t54.5 -110.5zM317 224h-95q-41 0 -65 -22.5t-24 -57.5
q0 -49 66 -49q49 0 81 32q23 23 31 66zM496 725l-24 -122h-106l24 122h106zM287 725l-24 -122h-106l24 122h106z" />
    <glyph glyph-name="aring" unicode="&#xe5;" horiz-adv-x="509" 
d="M469 382q0 -23 -5 -46l-68 -336h-119l9 46q-51 -51 -126 -51q-67 0 -108 38.5t-41 98.5q0 76 47 123q55 54 152 54h124l7 31q3 15 3 27q0 56 -77 56q-68 0 -112 -49l-64 83q68 70 193 70q76 0 130.5 -34.5t54.5 -110.5zM317 224h-95q-41 0 -65 -22.5t-24 -57.5
q0 -49 66 -49q49 0 81 32q23 23 31 66zM460 711q0 -54 -37 -90.5t-90 -36.5q-52 0 -89 36.5t-37 90.5q0 53 37 89.5t89 36.5q53 0 90 -36t37 -90zM392 711q0 23 -18 40t-41 17t-40.5 -17t-17.5 -40q0 -24 17.5 -41.5t40.5 -17.5t41 17.5t18 41.5z" />
    <glyph glyph-name="ae" unicode="&#xe6;" horiz-adv-x="802" 
d="M764 342q0 -46 -16 -119h-312q-4 -28 -4 -37q0 -40 22.5 -63.5t66.5 -23.5q69 0 124 53l65 -82q-82 -76 -203 -76q-107 0 -158 73q-68 -73 -172 -73q-78 0 -122.5 36t-44.5 102q0 75 46 121q54 54 153 54h125l6 31q3 13 3 29q0 56 -77 56q-70 0 -112 -49l-64 83
q68 70 194 70q98 0 146 -56q63 56 148 56q84 0 135 -50t51 -135zM317 223h-96q-41 0 -65 -22t-24 -57q0 -49 66 -49q49 0 81 32q24 22 32 65zM646 342q0 40 -20 61.5t-54 21.5q-88 0 -120 -118h191q3 17 3 35z" />
    <glyph glyph-name="ccedilla" unicode="&#xe7;" horiz-adv-x="458" 
d="M463 455l-93 -82q-32 43 -72 43q-42 0 -74 -33q-40 -42 -55 -122q-7 -40 -7 -67q0 -42 19 -65.5t55 -23.5q47 0 91 44l69 -89q-71 -66 -172 -66q-79 0 -133 49t-54 137q0 38 8 81q14 76 42.5 130.5t65.5 82.5t75.5 40.5t81.5 12.5q97 0 153 -72zM258 -57l-70 -144h-113
l86 144h97z" />
    <glyph glyph-name="egrave" unicode="&#xe8;" horiz-adv-x="523" 
d="M486 341q0 -47 -16 -118h-312q-4 -24 -4 -37q0 -40 22.5 -63.5t66.5 -23.5q69 0 124 53l65 -82q-82 -76 -203 -76q-78 0 -135.5 44.5t-57.5 138.5q0 91 27.5 168.5t89.5 129.5t148 52q83 0 134 -51t51 -135zM368 341q0 40 -20 62t-54 22q-88 0 -120 -119h191q3 16 3 35z
M375 601h-91l-72 167h118z" />
    <glyph glyph-name="eacute" unicode="&#xe9;" horiz-adv-x="523" 
d="M486 341q0 -47 -16 -118h-312q-4 -24 -4 -37q0 -40 22.5 -63.5t66.5 -23.5q69 0 124 53l65 -82q-82 -76 -203 -76q-78 0 -135.5 44.5t-57.5 138.5q0 91 27.5 168.5t89.5 129.5t148 52q83 0 134 -51t51 -135zM368 341q0 40 -20 62t-54 22q-88 0 -120 -119h191q3 16 3 35z
M506 768l-130 -167h-100l111 167h119z" />
    <glyph glyph-name="ecircumflex" unicode="&#xea;" horiz-adv-x="523" 
d="M486 341q0 -47 -16 -118h-312q-4 -24 -4 -37q0 -40 22.5 -63.5t66.5 -23.5q69 0 124 53l65 -82q-82 -76 -203 -76q-78 0 -135.5 44.5t-57.5 138.5q0 91 27.5 168.5t89.5 129.5t148 52q83 0 134 -51t51 -135zM368 341q0 40 -20 62t-54 22q-88 0 -120 -119h191q3 16 3 35z
M504 601h-91l-60 94l-98 -94h-101l159 169h99z" />
    <glyph glyph-name="edieresis" unicode="&#xeb;" horiz-adv-x="523" 
d="M486 341q0 -47 -16 -118h-312q-4 -24 -4 -37q0 -40 22.5 -63.5t66.5 -23.5q69 0 124 53l65 -82q-82 -76 -203 -76q-78 0 -135.5 44.5t-57.5 138.5q0 91 27.5 168.5t89.5 129.5t148 52q83 0 134 -51t51 -135zM368 341q0 40 -20 62t-54 22q-88 0 -120 -119h191q3 16 3 35z
M512 725l-24 -122h-106l24 122h106zM303 725l-24 -122h-106l24 122h106z" />
    <glyph glyph-name="igrave" unicode="&#xec;" horiz-adv-x="262" 
d="M243 505l-101 -505h-124l101 505h124zM245 601h-91l-72 167h118z" />
    <glyph glyph-name="iacute" unicode="&#xed;" horiz-adv-x="262" 
d="M375 768l-130 -167h-100l111 167h119zM243 505l-101 -505h-124l101 505h124z" />
    <glyph glyph-name="icircumflex" unicode="&#xee;" horiz-adv-x="262" 
d="M243 505l-101 -505h-124l101 505h124zM371 601h-91l-60 94l-98 -94h-101l159 169h99z" />
    <glyph glyph-name="idieresis" unicode="&#xef;" horiz-adv-x="262" 
d="M243 505l-101 -505h-124l101 505h124zM376 725l-24 -122h-106l24 122h106zM167 725l-24 -122h-106l24 122h106z" />
    <glyph glyph-name="eth" unicode="&#xf0;" horiz-adv-x="515" 
d="M484 658l-17 -86h-46l24 -76q27 -86 27 -150q0 -42 -10 -92q-29 -147 -93 -205q-61 -55 -154 -55q-71 0 -122 43t-51 128q0 37 11 89q15 78 35 122.5t55 78.5q55 55 143 55q16 0 30 -3l-21 65h-112l17 86h70l-19 62h128l18 -62h87zM348 336q0 67 -60 67q-35 0 -60 -23
q-32 -29 -51 -126q-11 -57 -11 -82q0 -37 18 -52.5t43 -15.5q34 0 60 24q32 29 51 126q10 52 10 82z" />
    <glyph glyph-name="ntilde" unicode="&#xf1;" horiz-adv-x="544" 
d="M501 383q0 -28 -7 -58l-65 -325h-124l64 317q4 24 4 34q0 32 -18 48.5t-44 16.5q-34 0 -64.5 -22.5t-41.5 -77.5l-64 -316h-124l104 521h119l-9 -50q51 56 137 56q52 0 92.5 -36.5t40.5 -107.5zM524 659q-55 -52 -111 -52q-40 0 -77 22q-28 17 -52 17q-31 0 -62 -31
l-45 60q55 52 110 52q40 0 77 -22q28 -17 53 -17q30 0 62 30z" />
    <glyph glyph-name="ograve" unicode="&#xf2;" horiz-adv-x="515" 
d="M477 355q0 -37 -10 -94q-16 -81 -37 -127t-56 -80q-63 -60 -160 -60q-73 0 -125 44t-52 128q0 42 11 95q16 81 37 127t56 79q62 60 160 60q72 0 124 -44t52 -128zM354 341q0 37 -18 56t-48 19q-38 0 -64 -26q-33 -32 -53 -129q-11 -55 -11 -81q0 -36 18 -55.5t48 -19.5
q38 0 64 26q35 34 53 130q11 54 11 80zM370 601h-91l-72 167h118z" />
    <glyph glyph-name="oacute" unicode="&#xf3;" horiz-adv-x="515" 
d="M477 355q0 -37 -10 -94q-16 -81 -37 -127t-56 -80q-63 -60 -160 -60q-73 0 -125 44t-52 128q0 42 11 95q16 81 37 127t56 79q62 60 160 60q72 0 124 -44t52 -128zM354 341q0 37 -18 56t-48 19q-38 0 -64 -26q-33 -32 -53 -129q-11 -55 -11 -81q0 -36 18 -55.5t48 -19.5
q38 0 64 26q35 34 53 130q11 54 11 80zM501 768l-130 -167h-100l111 167h119z" />
    <glyph glyph-name="ocircumflex" unicode="&#xf4;" horiz-adv-x="515" 
d="M477 355q0 -37 -10 -94q-16 -81 -37 -127t-56 -80q-63 -60 -160 -60q-73 0 -125 44t-52 128q0 42 11 95q16 81 37 127t56 79q62 60 160 60q72 0 124 -44t52 -128zM354 341q0 37 -18 56t-48 19q-38 0 -64 -26q-33 -32 -53 -129q-11 -55 -11 -81q0 -36 18 -55.5t48 -19.5
q38 0 64 26q35 34 53 130q11 54 11 80zM499 601h-91l-60 94l-98 -94h-101l159 169h99z" />
    <glyph glyph-name="otilde" unicode="&#xf5;" horiz-adv-x="515" 
d="M477 355q0 -37 -10 -94q-16 -81 -37 -127t-56 -80q-63 -60 -160 -60q-73 0 -125 44t-52 128q0 42 11 95q16 81 37 127t56 79q62 60 160 60q72 0 124 -44t52 -128zM354 341q0 37 -18 56t-48 19q-38 0 -64 -26q-33 -32 -53 -129q-11 -55 -11 -81q0 -36 18 -55.5t48 -19.5
q38 0 64 26q35 34 53 130q11 54 11 80zM510 659q-55 -52 -111 -52q-40 0 -77 22q-28 17 -52 17q-31 0 -62 -31l-45 60q55 52 110 52q40 0 77 -22q28 -17 53 -17q30 0 62 30z" />
    <glyph glyph-name="odieresis" unicode="&#xf6;" horiz-adv-x="515" 
d="M477 355q0 -37 -10 -94q-16 -81 -37 -127t-56 -80q-63 -60 -160 -60q-73 0 -125 44t-52 128q0 42 11 95q16 81 37 127t56 79q62 60 160 60q72 0 124 -44t52 -128zM354 341q0 37 -18 56t-48 19q-38 0 -64 -26q-33 -32 -53 -129q-11 -55 -11 -81q0 -36 18 -55.5t48 -19.5
q38 0 64 26q35 34 53 130q11 54 11 80zM507 725l-24 -122h-106l24 122h106zM298 725l-24 -122h-106l24 122h106z" />
    <glyph glyph-name="divide" unicode="&#xf7;" 
d="M490 343l-23 -115h-429l23 115h429zM376 543l-25 -124h-124l25 124h124zM301 153l-24 -124h-124l25 124h123z" />
    <glyph glyph-name="oslash" unicode="&#xf8;" horiz-adv-x="517" 
d="M477 355q0 -37 -10 -94q-16 -81 -37 -127t-56 -80q-63 -60 -160 -60q-56 0 -100 25l-46 -63h-76l77 104q-32 42 -32 106q0 42 11 95q16 81 37 127t56 79q62 60 160 60q57 0 100 -26l48 62h76l-79 -103q31 -42 31 -105zM160 167l173 233q-17 17 -45 17q-38 0 -64 -26
q-35 -34 -53 -130q-11 -55 -11 -94zM354 342v6l-170 -230q19 -13 42 -13q38 0 64 26q35 34 53 130q11 55 11 81z" />
    <glyph glyph-name="ugrave" unicode="&#xf9;" horiz-adv-x="544" 
d="M528 521l-104 -521h-119l9 50q-51 -56 -136 -56q-53 0 -93.5 36.5t-40.5 108.5q0 17 7 57l65 325h124l-64 -317q-4 -22 -4 -34q0 -32 18 -48.5t44 -16.5q34 0 64.5 22.5t41.5 77.5l64 316h124zM377 601h-91l-72 167h118z" />
    <glyph glyph-name="uacute" unicode="&#xfa;" horiz-adv-x="544" 
d="M528 521l-104 -521h-119l9 50q-51 -56 -136 -56q-53 0 -93.5 36.5t-40.5 108.5q0 17 7 57l65 325h124l-64 -317q-4 -22 -4 -34q0 -32 18 -48.5t44 -16.5q34 0 64.5 22.5t41.5 77.5l64 316h124zM508 768l-130 -167h-100l111 167h119z" />
    <glyph glyph-name="ucircumflex" unicode="&#xfb;" horiz-adv-x="544" 
d="M528 521l-104 -521h-119l9 50q-51 -56 -136 -56q-53 0 -93.5 36.5t-40.5 108.5q0 17 7 57l65 325h124l-64 -317q-4 -22 -4 -34q0 -32 18 -48.5t44 -16.5q34 0 64.5 22.5t41.5 77.5l64 316h124zM506 601h-91l-60 94l-98 -94h-101l159 169h99z" />
    <glyph glyph-name="udieresis" unicode="&#xfc;" horiz-adv-x="544" 
d="M528 521l-104 -521h-119l9 50q-51 -56 -136 -56q-53 0 -93.5 36.5t-40.5 108.5q0 17 7 57l65 325h124l-64 -317q-4 -22 -4 -34q0 -32 18 -48.5t44 -16.5q34 0 64.5 22.5t41.5 77.5l64 316h124zM514 725l-24 -122h-106l24 122h106zM305 725l-24 -122h-106l24 122h106z" />
    <glyph glyph-name="yacute" unicode="&#xfd;" horiz-adv-x="464" 
d="M515 521l-325 -605q-20 -38 -43 -61q-46 -46 -124 -46h-48l23 112h28q26 0 41 12.5t30 41.5l33 62l-74 484h123l38 -336l167 336h131zM473 768l-130 -167h-100l111 167h119z" />
    <glyph glyph-name="thorn" unicode="&#xfe;" horiz-adv-x="533" 
d="M501 383q0 -41 -16 -122q-18 -87 -36 -137t-47 -79q-51 -51 -131 -51q-85 0 -118 54l-49 -239h-124l180 903h124l-47 -234q47 49 124 49q51 0 84 -23.5t44.5 -54t11.5 -66.5zM372 344q0 72 -62 72q-52 0 -76 -37.5t-40 -117.5q-11 -59 -11 -84q0 -72 62 -72q51 0 75.5 38
t40.5 118q11 59 11 83z" />
    <glyph glyph-name="ydieresis" unicode="&#xff;" horiz-adv-x="464" 
d="M515 521l-325 -605q-20 -38 -43 -61q-46 -46 -124 -46h-48l23 112h28q26 0 41 12.5t30 41.5l33 62l-74 484h123l38 -336l167 336h131zM478 725l-24 -122h-106l24 122h106zM269 725l-24 -122h-106l24 122h106z" />
    <glyph glyph-name="dotlessi" unicode="&#x131;" horiz-adv-x="262" 
d="M243 505l-101 -505h-124l101 505h124z" />
    <glyph glyph-name="IJ" unicode="&#x132;" horiz-adv-x="775" 
d="M303 712l-143 -712h-132l143 712h132zM797 712l-98 -487q-14 -68 -44.5 -116.5t-69.5 -72t-74.5 -33t-71.5 -9.5q-119 0 -179 77l95 81q33 -42 87 -42q42 0 78 28.5t49 94.5l96 479h132z" />
    <glyph glyph-name="ij" unicode="&#x133;" horiz-adv-x="524" 
d="M243 505l-101 -505h-124l101 505h124zM285 710l-21 -103h-127l20 103h128zM505 505l-110 -553q-14 -69 -57 -108t-111 -39h-77l21 105h45q46 0 56 53l109 542h124zM547 710l-21 -103h-127l20 103h128z" />
    <glyph glyph-name="Lslash" unicode="&#x141;" horiz-adv-x="567" 
d="M511 116l-22 -116h-444l50 245l-70 -41l23 117l70 40l70 351h132l-53 -266l138 81l-24 -118l-137 -80l-43 -213h310z" />
    <glyph glyph-name="lslash" unicode="&#x142;" horiz-adv-x="322" 
d="M315 525l-23 -111l-64 -37l-44 -220q-3 -13 -3 -22q0 -30 39 -30h51l-22 -105h-67q-55 0 -90.5 30.5t-35.5 82.5q0 24 4 43l30 147l-59 -34l22 111l58 33l60 299h123l-45 -224z" />
    <glyph glyph-name="OE" unicode="&#x152;" horiz-adv-x="918" 
d="M955 712l-23 -116h-311l-36 -179h268l-23 -116h-268l-37 -185h317l-23 -116h-435l9 48q-50 -54 -128 -54q-97 0 -154.5 58t-57.5 144q0 60 20 160q23 118 43.5 177t62.5 103q76 82 201 82q92 0 130 -60l10 54h435zM463 505q0 46 -26.5 71.5t-65.5 25.5q-56 0 -95 -43
q-21 -23 -36.5 -66.5t-34.5 -136.5q-20 -100 -20 -149q0 -46 26.5 -71.5t65.5 -25.5q56 0 95 43q21 23 36.5 66.5t34.5 136.5q20 98 20 149z" />
    <glyph glyph-name="oe" unicode="&#x153;" horiz-adv-x="822" 
d="M301 527q42 0 78.5 -17.5t58.5 -50.5q63 68 162 68q83 0 134 -51t51 -135q0 -47 -16 -118h-312q-4 -16 -4 -37q0 -40 22.5 -63.5t66.5 -23.5q69 0 124 53l65 -82q-82 -76 -203 -76q-103 0 -151 69q-63 -69 -163 -69q-73 0 -125 44t-52 128q0 42 11 95q16 81 37 127t56 79
q62 60 160 60zM354 342q0 36 -18 55.5t-48 19.5q-38 0 -64 -26q-35 -34 -53 -130q-11 -55 -11 -81q0 -36 18 -55.5t48 -19.5q38 0 64 26q35 34 53 130q11 55 11 81zM667 341q0 40 -20 62t-54 22q-88 0 -120 -119h191q3 16 3 35z" />
    <glyph glyph-name="Scaron" unicode="&#x160;" horiz-adv-x="563" 
d="M577 632l-93 -81q-44 52 -126 52q-59 0 -95.5 -33t-36.5 -75q0 -31 20 -46t56 -24l59 -14q87 -21 124 -64.5t37 -120.5q0 -114 -82 -173t-203 -59q-84 0 -139.5 22.5t-100.5 75.5l96 84q55 -65 156 -65q59 0 100 30t41 73q0 36 -18.5 53t-56.5 26l-59 15
q-83 21 -122.5 65.5t-39.5 103.5q0 105 75.5 173t203.5 68q134 0 204 -86zM597 948l-159 -170h-100l-92 170h92l59 -95l99 95h101z" />
    <glyph glyph-name="scaron" unicode="&#x161;" horiz-adv-x="475" 
d="M459 463l-85 -75q-36 37 -99 37q-44 0 -67.5 -18.5t-23.5 -44.5q0 -32 48 -39l67 -11q126 -20 126 -135q0 -72 -56 -126q-58 -57 -181 -57q-129 0 -201 78l89 78q43 -50 120 -50q50 0 78 19.5t28 45.5q0 35 -49 43l-68 11q-66 11 -95.5 43.5t-29.5 74.5q0 77 53 130
q60 60 173 60q110 0 173 -64zM526 770l-160 -169h-99l-93 169h93l59 -94l99 94h101z" />
    <glyph glyph-name="Ydieresis" unicode="&#x178;" horiz-adv-x="550" 
d="M635 712l-286 -425l-58 -287h-132l59 292l-129 420h140l76 -295l184 295h146zM545 902l-24 -122h-106l24 122h106zM336 902l-24 -122h-106l24 122h106z" />
    <glyph glyph-name="Zcaron" unicode="&#x17d;" horiz-adv-x="526" 
d="M575 712l-21 -103l-382 -492h290l-24 -117h-450l22 105l379 490h-275l23 117h438zM574 948l-159 -170h-100l-92 170h92l59 -95l99 95h101z" />
    <glyph glyph-name="zcaron" unicode="&#x17e;" horiz-adv-x="461" 
d="M470 521l-19 -95l-279 -315h223l-22 -111h-386l19 95l277 315h-208l22 111h373zM508 770l-160 -169h-99l-93 169h93l59 -94l99 94h101z" />
    <glyph glyph-name="longs" unicode="&#x17f;" horiz-adv-x="262" 
d="M376 720l-21 -105h-44q-47 0 -57 -51l-113 -564h-124l116 577q28 143 170 143h73z" />
    <glyph glyph-name="florin" unicode="&#x192;" horiz-adv-x="406" 
d="M469 719l-20 -103h-64q-45 0 -62 -48l-62 -171h93l-20 -94h-107l-181 -494h-124l181 494h-64l18 94h81l63 174q29 81 76.5 114.5t124.5 33.5h67z" />
    <glyph glyph-name="uni02BB" unicode="&#x2bb;" horiz-adv-x="258" 
d="M306 817l-45 -228h-129l24 123z" />
    <glyph glyph-name="afii57929" unicode="&#x2bc;" horiz-adv-x="258" 
d="M285 712l-24 -124l-150 -104l45 228h129z" />
    <glyph glyph-name="circumflex" unicode="&#x2c6;" horiz-adv-x="514" 
d="M499 601h-91l-60 94l-98 -94h-101l159 169h99z" />
    <glyph glyph-name="caron" unicode="&#x2c7;" horiz-adv-x="514" 
d="M536 770l-160 -169h-99l-93 169h93l59 -94l99 94h101z" />
    <glyph glyph-name="breve" unicode="&#x2d8;" horiz-adv-x="515" 
d="M496 736q-15 -76 -56.5 -110t-110.5 -34q-64 0 -99 31.5t-35 81.5q0 15 3 31h82q-1 -10 -1 -16q0 -44 59 -44q60 0 74 60h84z" />
    <glyph glyph-name="dotaccent" unicode="&#x2d9;" horiz-adv-x="514" 
d="M403 723l-22 -114h-108l24 114h106z" />
    <glyph glyph-name="ring" unicode="&#x2da;" horiz-adv-x="514" 
d="M469 711q0 -54 -37 -90.5t-90 -36.5q-52 0 -89 36.5t-37 90.5q0 53 37 89.5t89 36.5q53 0 90 -36t37 -90zM401 711q0 23 -18 40t-41 17t-40.5 -17t-17.5 -40q0 -24 17.5 -41.5t40.5 -17.5t41 17.5t18 41.5z" />
    <glyph glyph-name="ogonek" unicode="&#x2db;" horiz-adv-x="515" 
d="M257 -57l-70 -144h-113l86 144h97z" />
    <glyph glyph-name="tilde" unicode="&#x2dc;" horiz-adv-x="514" 
d="M510 659q-55 -52 -111 -52q-40 0 -77 22q-28 17 -52 17q-31 0 -62 -31l-45 60q55 52 110 52q40 0 77 -22q28 -17 53 -17q30 0 62 30z" />
    <glyph glyph-name="hungarumlaut" unicode="&#x2dd;" horiz-adv-x="515" 
d="M600 768l-131 -168h-99l111 168h119zM403 768l-131 -168h-99l110 168h120z" />
    <glyph glyph-name="uni0394" unicode="&#x394;" horiz-adv-x="604" 
d="M550 0h-598l389 712h105zM410 110l-48 403l-214 -403h262z" />
    <glyph glyph-name="uni03A9" unicode="&#x3a9;" horiz-adv-x="611" 
d="M597 516q0 -43 -22 -160q-16 -81 -29.5 -121.5t-35.5 -71.5t-39 -46h62l-24 -117h-212l20 103q34 14 55 38t35.5 66.5t33.5 141.5q22 113 22 156q0 48 -25.5 72t-61.5 24q-59 0 -100 -42q-20 -21 -35 -65t-35 -145q-23 -116 -23 -158q0 -64 50 -88l-20 -103h-203l23 117
h61q-34 45 -34 112q0 51 15 127q23 118 44 177.5t65 103.5q39 39 92 60t106 21q98 0 156.5 -58t58.5 -144z" />
    <glyph glyph-name="uni03BC" unicode="&#x3bc;" horiz-adv-x="548" 
d="M531 521l-104 -521h-119l10 50q-54 -56 -137 -56q-25 0 -40 15l-40 -200h-124l142 712h124l-64 -317q-3 -16 -3 -34q0 -32 18 -48.5t43 -16.5q34 0 65 22.5t42 77.5l63 316h124z" />
    <glyph glyph-name="pi" unicode="&#x3c0;" horiz-adv-x="576" 
d="M533 521l-105 -521h-124l85 420h-164l-84 -420h-124l104 521h412z" />
    <glyph glyph-name="uni2007" unicode="&#x2007;" 
 />
    <glyph glyph-name="uni2008" unicode="&#x2008;" horiz-adv-x="271" 
 />
    <glyph glyph-name="uni200B" unicode="&#x200b;" horiz-adv-x="0" 
 />
    <glyph glyph-name="endash" unicode="&#x2013;" 
d="M485 343l-23 -115h-420l23 115h420z" />
    <glyph glyph-name="emdash" unicode="&#x2014;" horiz-adv-x="974" 
d="M936 343l-23 -115h-863l23 115h863z" />
    <glyph glyph-name="quoteleft" unicode="&#x2018;" horiz-adv-x="258" 
d="M306 817l-45 -228h-129l24 123z" />
    <glyph glyph-name="quoteright" unicode="&#x2019;" horiz-adv-x="258" 
d="M285 712l-24 -124l-150 -104l45 228h129z" />
    <glyph glyph-name="quotesinglbase" unicode="&#x201a;" horiz-adv-x="258" 
d="M168 124l-25 -124l-149 -104l45 228h129z" />
    <glyph glyph-name="quotedblleft" unicode="&#x201c;" horiz-adv-x="458" 
d="M506 817l-46 -228h-128l24 123zM306 817l-46 -228h-128l24 123z" />
    <glyph glyph-name="quotedblright" unicode="&#x201d;" horiz-adv-x="458" 
d="M485 712l-25 -124l-149 -104l45 228h129zM285 712l-25 -124l-149 -104l45 228h129z" />
    <glyph glyph-name="quotedblbase" unicode="&#x201e;" horiz-adv-x="458" 
d="M368 124l-25 -124l-150 -104l45 228h130zM167 124l-24 -124l-149 -104l45 228h128z" />
    <glyph glyph-name="dagger" unicode="&#x2020;" horiz-adv-x="550" 
d="M550 526l-22 -110h-159l-83 -416h-124l83 416h-159l22 110h159l37 186h124l-37 -186h159z" />
    <glyph glyph-name="daggerdbl" unicode="&#x2021;" horiz-adv-x="550" 
d="M550 526l-22 -110h-159l-62 -305h161l-22 -110h-161l-38 -192h-123l38 192h-158l22 110h158l61 305h-159l22 110h159l37 186h124l-37 -186h159z" />
    <glyph glyph-name="bullet" unicode="&#x2022;" horiz-adv-x="469" 
d="M404 334q0 -68 -43 -111t-111 -43t-111 43t-43 111t43 111t111 43t111 -43t43 -111z" />
    <glyph glyph-name="ellipsis" unicode="&#x2026;" horiz-adv-x="804" 
d="M446 136l-28 -136h-134l27 136h135zM715 136l-26 -136h-135l28 136h133zM175 136l-26 -136h-135l28 136h133z" />
    <glyph glyph-name="perthousand" unicode="&#x2030;" horiz-adv-x="1161" 
d="M763 257q0 -17 -3 -32l-18 -95q-26 -136 -159 -136q-49 0 -83.5 28t-34.5 82q0 17 3 32l18 95q26 136 159 136q49 0 83.5 -28t34.5 -82zM710 712l-463 -712h-100l463 712h100zM673 246q0 41 -41 41q-46 0 -57 -58l-18 -90q-2 -10 -2 -24q0 -41 41 -41q46 0 57 58l18 93
q2 10 2 21zM392 608q0 -17 -3 -32l-18 -95q-26 -136 -159 -136q-49 0 -83.5 28t-34.5 82q0 17 3 32l18 95q26 136 159 136q49 0 83.5 -28t34.5 -82zM302 597q0 41 -41 41q-46 0 -57 -58l-18 -90q-2 -10 -2 -24q0 -41 41 -41q46 0 57 58l18 93q2 10 2 21zM1107 257
q0 -17 -3 -32l-18 -95q-26 -136 -159 -136q-49 0 -83.5 28t-34.5 82q0 17 3 32l18 95q26 136 159 136q49 0 83.5 -28t34.5 -82zM1017 246q0 41 -41 41q-46 0 -57 -58l-18 -90q-2 -10 -2 -24q0 -41 41 -41q46 0 57 58l18 93q2 10 2 21z" />
    <glyph glyph-name="guilsinglleft" unicode="&#x2039;" horiz-adv-x="333" 
d="M323 521l-33 -160l-111 -96l73 -96l-27 -142l-189 249z" />
    <glyph glyph-name="guilsinglright" unicode="&#x203a;" horiz-adv-x="333" 
d="M305 273l-287 -246l32 160l111 96l-73 97l28 141z" />
    <glyph glyph-name="fraction" unicode="&#x2044;" horiz-adv-x="200" 
d="M401 712l-462 -712h-100l463 712h99z" />
    <glyph glyph-name="uni2070" unicode="&#x2070;" horiz-adv-x="316" 
d="M345 609q0 -18 -3 -30l-32 -165q-14 -70 -54.5 -101.5t-93.5 -31.5t-83 31t-30 76q0 15 3 30l33 165q14 70 54 101.5t93 31.5t83 -31t30 -76zM254 594q0 33 -32 33q-39 0 -48 -48l-31 -156q-3 -11 -3 -19q0 -17 9.5 -25.5t23.5 -8.5q39 0 48 48l31 157q2 14 2 19z" />
    <glyph glyph-name="uni2074" unicode="&#x2074;" horiz-adv-x="316" 
d="M326 426l-16 -81h-33l-12 -60h-85l12 60h-170l15 81l193 286h100l-194 -286h71l13 66h86l-14 -66h34z" />
    <glyph glyph-name="uni2075" unicode="&#x2075;" horiz-adv-x="316" 
d="M360 712l-16 -82h-162l-14 -74q21 16 54 16q49 0 74 -29.5t25 -71.5q0 -23 -3 -41q-14 -75 -50 -110q-40 -38 -104 -38q-50 0 -81.5 29t-31.5 75q0 16 2 26h86q-1 -5 -1 -12q0 -37 33 -37q41 0 54 67q4 26 4 29q0 37 -33 37q-32 0 -47 -31h-83l50 247h244z" />
    <glyph glyph-name="uni2076" unicode="&#x2076;" horiz-adv-x="316" 
d="M326 428q0 -63 -39.5 -105t-105.5 -42q-63 0 -95 36t-32 82q0 32 11.5 59t39.5 69l123 185h101l-119 -174q16 2 22 2q41 0 67.5 -30t26.5 -82zM236 425q0 44 -40 44q-24 0 -38 -18t-14 -44q0 -22 11 -33.5t29 -11.5q23 0 37.5 18.5t14.5 44.5z" />
    <glyph glyph-name="uni2077" unicode="&#x2077;" horiz-adv-x="316" 
d="M377 712l-16 -81l-192 -346h-92l192 346h-106l-13 -68h-81l29 149h279z" />
    <glyph glyph-name="uni2078" unicode="&#x2078;" horiz-adv-x="316" 
d="M346 598q0 -31 -18 -58.5t-44 -42.5q32 -26 32 -74q0 -62 -40.5 -102t-109.5 -40q-55 0 -90 30t-35 87q0 76 68 112q-30 32 -30 75q0 54 40 92.5t104 38.5q55 0 89 -32.5t34 -85.5zM225 421q0 18 -10 31t-30 13q-23 0 -38.5 -16.5t-15.5 -42.5q0 -18 10 -31t30 -13
q23 0 38.5 16.5t15.5 42.5zM255 595q0 16 -9.5 28t-27.5 12q-20 0 -34.5 -15.5t-14.5 -39.5q0 -16 9.5 -27.5t27.5 -11.5q21 0 35 15t14 39z" />
    <glyph glyph-name="uni2079" unicode="&#x2079;" horiz-adv-x="316" 
d="M348 599q0 -32 -11.5 -59.5t-39.5 -69.5l-123 -185h-101l119 174q-8 -2 -22 -2q-42 0 -68 30t-26 82q0 64 39.5 105.5t104.5 41.5q64 0 96 -35.5t32 -81.5zM258 590q0 22 -11 33.5t-29 11.5q-25 0 -38.5 -18t-13.5 -45q0 -44 40 -44q25 0 38.5 17.5t13.5 44.5z" />
    <glyph glyph-name="uni2080" unicode="&#x2080;" horiz-adv-x="316" 
d="M257 174q0 -18 -3 -30l-32 -165q-14 -70 -54.5 -101.5t-93.5 -31.5t-83 31t-30 76q0 15 3 30l33 165q14 70 54 101.5t93 31.5t83 -31t30 -76zM166 159q0 33 -32 33q-39 0 -48 -48l-31 -156q-3 -11 -3 -19q0 -17 9.5 -25.5t23.5 -8.5q39 0 48 48l31 157q2 14 2 19z" />
    <glyph glyph-name="uni2081" unicode="&#x2081;" horiz-adv-x="316" 
d="M223 277l-85 -427h-90l64 321l-101 -73l22 107l101 72h89z" />
    <glyph glyph-name="uni2082" unicode="&#x2082;" horiz-adv-x="316" 
d="M257 171q0 -61 -68 -124l-125 -117h151l-16 -80h-263l17 80l177 169q36 35 36 65q0 37 -34 37q-41 0 -49 -46h-90q24 126 148 126q55 0 85.5 -29.5t30.5 -80.5z" />
    <glyph glyph-name="uni2083" unicode="&#x2083;" horiz-adv-x="316" 
d="M259 171q0 -73 -63 -104q33 -26 33 -79q0 -63 -41 -102t-109 -39q-62 0 -92.5 28.5t-30.5 69.5q0 12 2 32h89q-6 -50 38 -50q22 0 37.5 16.5t15.5 43.5q0 44 -39 44h-11l15 76h10q29 0 42 18t13 40q0 37 -32 37q-42 0 -51 -46h-90q22 126 151 126q50 0 81.5 -31t31.5 -80
z" />
    <glyph glyph-name="uni2084" unicode="&#x2084;" horiz-adv-x="316" 
d="M239 -9l-16 -81h-33l-12 -60h-85l12 60h-170l15 81l193 286h100l-194 -286h71l13 66h86l-14 -66h34z" />
    <glyph glyph-name="uni2085" unicode="&#x2085;" horiz-adv-x="316" 
d="M273 277l-16 -82h-162l-14 -74q21 16 54 16q49 0 74 -29.5t25 -71.5q0 -23 -3 -41q-14 -75 -50 -110q-40 -38 -104 -38q-50 0 -81.5 29t-31.5 75q0 16 2 26h86q-1 -5 -1 -12q0 -37 33 -37q41 0 54 67q4 26 4 29q0 37 -33 37q-31 0 -47 -31h-83l50 247h244z" />
    <glyph glyph-name="uni2086" unicode="&#x2086;" horiz-adv-x="316" 
d="M239 -7q0 -63 -39.5 -105t-105.5 -42q-63 0 -95 36t-32 82q0 32 11.5 59t39.5 69l123 185h101l-119 -174q16 2 22 2q41 0 67.5 -30t26.5 -82zM149 -10q0 44 -40 44q-24 0 -38 -18t-14 -44q0 -22 11 -33.5t29 -11.5q23 0 37.5 18.5t14.5 44.5z" />
    <glyph glyph-name="uni2087" unicode="&#x2087;" horiz-adv-x="316" 
d="M290 277l-16 -81l-192 -346h-92l192 346h-106l-13 -68h-81l29 149h279z" />
    <glyph glyph-name="uni2088" unicode="&#x2088;" horiz-adv-x="316" 
d="M259 163q0 -31 -18 -58.5t-44 -42.5q32 -26 32 -74q0 -62 -40.5 -102t-109.5 -40q-55 0 -90 30t-35 87q0 76 68 112q-30 32 -30 75q0 54 40 92.5t104 38.5q55 0 89 -32.5t34 -85.5zM138 -14q0 18 -10 31t-30 13q-23 0 -38.5 -16.5t-15.5 -42.5q0 -18 10 -31t30 -13
q23 0 38.5 16.5t15.5 42.5zM168 160q0 16 -9.5 28t-27.5 12q-20 0 -34.5 -15.5t-14.5 -39.5q0 -16 9.5 -27.5t27.5 -11.5q21 0 35 15t14 39z" />
    <glyph glyph-name="uni2089" unicode="&#x2089;" horiz-adv-x="316" 
d="M262 164q0 -32 -11.5 -59.5t-39.5 -69.5l-123 -185h-101l119 174q-8 -2 -22 -2q-42 0 -68 30t-26 82q0 64 39.5 105.5t104.5 41.5q64 0 96 -35.5t32 -81.5zM172 155q0 22 -11 33.5t-29 11.5q-25 0 -38.5 -18t-13.5 -45q0 -44 40 -44q25 0 38.5 17.5t13.5 44.5z" />
    <glyph glyph-name="Euro" unicode="&#x20ac;" horiz-adv-x="650" 
d="M641 498h-132q-1 47 -23.5 75.5t-68.5 28.5q-54 0 -95 -41q-28 -30 -43 -88h143l-16 -78h-147l-15 -75h147l-16 -78h-142q-3 -13 -3 -36q0 -45 27 -70.5t69 -25.5q49 0 82 29.5t50 74.5h135q-35 -108 -108 -164t-169 -56q-100 0 -159.5 57.5t-59.5 144.5q0 22 4 46h-69
l15 78h65l15 75h-64l15 78h67q27 108 81 164q80 81 198 81q106 0 161.5 -61.5t55.5 -158.5z" />
    <glyph glyph-name="uni20B4" unicode="&#x20b4;" horiz-adv-x="652" 
d="M655 471l-15 -74h-70q-39 -35 -137 -65l-33 -10h226l-15 -74h-386q-24 -23 -24 -53q0 -38 32.5 -62t90.5 -24q51 0 89.5 14.5t80.5 49.5l75 -87q-58 -50 -119.5 -70.5t-142.5 -20.5q-109 0 -173.5 51t-64.5 131q0 43 8 71h-45q4 24 14 74h77q43 39 146 72l9 3h-217l15 74
h392q26 23 26 53q0 36 -28.5 58.5t-84.5 22.5q-83 0 -148 -56q-71 82 -74 86q52 44 106.5 63.5t127.5 19.5q109 0 169.5 -49t60.5 -129q0 -37 -8 -69h40z" />
    <glyph glyph-name="afii61352" unicode="&#x2116;" horiz-adv-x="913" 
d="M939 598q0 -29 -7 -64q-20 -102 -62 -143q-40 -40 -108 -40q-48 0 -84.5 29.5t-36.5 89.5q0 29 7 64q20 102 62 143q40 40 108 40q48 0 84.5 -29t36.5 -90zM850 586q0 49 -44 49q-23 0 -39 -18q-19 -21 -31 -83q-6 -30 -6 -52q0 -49 44 -49q24 0 39 18q19 21 31 83
q6 30 6 52zM886 314l-19 -90h-272l19 90h272zM633 712l-144 -712h-109l-145 458l-93 -458h-124l145 712h109l145 -458l92 458h124z" />
    <glyph glyph-name="trademark" unicode="&#x2122;" horiz-adv-x="878" 
d="M909 712l-84 -427h-92l51 253l-106 -153h-79l-46 155l-52 -255h-90l84 427h89l70 -228l163 228h92zM431 712l-15 -81h-103l-70 -346h-89l69 346h-106l16 81h298z" />
    <glyph glyph-name="Omega" unicode="&#x2126;" horiz-adv-x="611" 
d="M597 516q0 -43 -22 -160q-16 -81 -29.5 -121.5t-35.5 -71.5t-39 -46h62l-24 -117h-212l20 103q34 14 55 38t35.5 66.5t33.5 141.5q22 113 22 156q0 48 -25.5 72t-61.5 24q-59 0 -100 -42q-20 -21 -35 -65t-35 -145q-23 -116 -23 -158q0 -64 50 -88l-20 -103h-203l23 117
h61q-34 45 -34 112q0 51 15 127q23 118 44 177.5t65 103.5q39 39 92 60t106 21q98 0 156.5 -58t58.5 -144z" />
    <glyph glyph-name="onethird" unicode="&#x2153;" horiz-adv-x="832" 
d="M310 712l-85 -427h-90l64 321l-101 -73l22 107l101 72h89zM717 712l-462 -712h-100l463 712h99zM804 321q0 -73 -63 -104q33 -26 33 -79q0 -63 -41 -102t-109 -39q-62 0 -92.5 28.5t-30.5 69.5q0 12 2 32h89q-6 -50 38 -50q22 0 37.5 16.5t15.5 43.5q0 44 -39 44h-11
l15 76h10q29 0 42 18t13 40q0 37 -32 37q-42 0 -51 -46h-90q22 126 151 126q50 0 81.5 -31t31.5 -80z" />
    <glyph glyph-name="twothirds" unicode="&#x2154;" horiz-adv-x="832" 
d="M345 606q0 -61 -68 -124l-125 -117h151l-16 -80h-263l17 80l177 169q36 35 36 65q0 37 -34 37q-41 0 -49 -46h-90q24 126 148 126q55 0 85.5 -29.5t30.5 -80.5zM717 712l-462 -712h-100l463 712h99zM804 321q0 -73 -63 -104q33 -26 33 -79q0 -63 -41 -102t-109 -39
q-62 0 -92.5 28.5t-30.5 69.5q0 12 2 32h89q-6 -50 38 -50q22 0 37.5 16.5t15.5 43.5q0 44 -39 44h-11l15 76h10q29 0 42 18t13 40q0 37 -32 37q-42 0 -51 -46h-90q22 126 151 126q50 0 81.5 -31t31.5 -80z" />
    <glyph glyph-name="uni2155" unicode="&#x2155;" horiz-adv-x="832" 
d="M310 712l-85 -427h-90l64 321l-101 -73l22 107l101 72h89zM717 712l-462 -712h-100l463 712h99zM819 427l-16 -82h-162l-14 -74q21 16 54 16q49 0 74 -29.5t25 -71.5q0 -23 -3 -41q-14 -75 -50 -110q-40 -38 -104 -38q-50 0 -81.5 29t-31.5 75q0 16 2 26h86q-1 -5 -1 -12
q0 -37 33 -37q41 0 54 67q4 26 4 29q0 37 -33 37q-31 0 -47 -31h-83l50 247h244z" />
    <glyph glyph-name="uni2156" unicode="&#x2156;" horiz-adv-x="832" 
d="M345 606q0 -61 -68 -124l-125 -117h151l-16 -80h-263l17 80l177 169q36 35 36 65q0 37 -34 37q-41 0 -49 -46h-90q24 126 148 126q55 0 85.5 -29.5t30.5 -80.5zM717 712l-462 -712h-100l463 712h99zM819 427l-16 -82h-162l-14 -74q21 16 54 16q49 0 74 -29.5t25 -71.5
q0 -23 -3 -41q-14 -75 -50 -110q-40 -38 -104 -38q-50 0 -81.5 29t-31.5 75q0 16 2 26h86q-1 -5 -1 -12q0 -37 33 -37q41 0 54 67q4 26 4 29q0 37 -33 37q-31 0 -47 -31h-83l50 247h244z" />
    <glyph glyph-name="uni2157" unicode="&#x2157;" horiz-adv-x="832" 
d="M345 606q0 -72 -63 -104q33 -26 33 -79q0 -63 -41 -102t-109 -39q-62 0 -92.5 28.5t-30.5 69.5q0 12 2 32h89q-6 -50 38 -50q22 0 37.5 16.5t15.5 43.5q0 44 -39 44h-11l15 76h10q29 0 42 18t13 40q0 37 -32 37q-42 0 -51 -46h-90q22 126 151 126q50 0 81.5 -31t31.5 -80
zM717 712l-462 -712h-100l463 712h99zM819 427l-16 -82h-162l-14 -74q21 16 54 16q49 0 74 -29.5t25 -71.5q0 -23 -3 -41q-14 -75 -50 -110q-40 -38 -104 -38q-50 0 -81.5 29t-31.5 75q0 16 2 26h86q-1 -5 -1 -12q0 -37 33 -37q41 0 54 67q4 26 4 29q0 37 -33 37
q-31 0 -47 -31h-83l50 247h244z" />
    <glyph glyph-name="uni2158" unicode="&#x2158;" horiz-adv-x="832" 
d="M326 426l-16 -81h-33l-12 -60h-85l12 60h-170l15 81l193 286h100l-194 -286h71l13 66h86l-14 -66h34zM717 712l-462 -712h-100l463 712h99zM819 427l-16 -82h-162l-14 -74q21 16 54 16q49 0 74 -29.5t25 -71.5q0 -23 -3 -41q-14 -75 -50 -110q-40 -38 -104 -38
q-50 0 -81.5 29t-31.5 75q0 16 2 26h86q-1 -5 -1 -12q0 -37 33 -37q41 0 54 67q4 26 4 29q0 37 -33 37q-31 0 -47 -31h-83l50 247h244z" />
    <glyph glyph-name="uni2159" unicode="&#x2159;" horiz-adv-x="832" 
d="M310 712l-85 -427h-90l64 321l-101 -73l22 107l101 72h89zM717 712l-462 -712h-100l463 712h99zM785 143q0 -63 -39.5 -105t-105.5 -42q-63 0 -95 36t-32 82q0 32 11.5 59t39.5 69l123 185h101l-119 -174q16 2 22 2q41 0 67.5 -30t26.5 -82zM695 140q0 44 -40 44
q-24 0 -38 -18t-14 -44q0 -22 11 -33.5t29 -11.5q23 0 37.5 18.5t14.5 44.5z" />
    <glyph glyph-name="uni215A" unicode="&#x215a;" horiz-adv-x="832" 
d="M360 712l-16 -82h-162l-14 -74q21 16 54 16q49 0 74 -29.5t25 -71.5q0 -23 -3 -41q-14 -75 -50 -110q-40 -38 -104 -38q-50 0 -81.5 29t-31.5 75q0 16 2 26h86q-1 -5 -1 -12q0 -37 33 -37q41 0 54 67q4 26 4 29q0 37 -33 37q-32 0 -47 -31h-83l50 247h244zM717 712
l-462 -712h-100l463 712h99zM785 143q0 -63 -39.5 -105t-105.5 -42q-63 0 -95 36t-32 82q0 32 11.5 59t39.5 69l123 185h101l-119 -174q16 2 22 2q41 0 67.5 -30t26.5 -82zM695 140q0 44 -40 44q-24 0 -38 -18t-14 -44q0 -22 11 -33.5t29 -11.5q23 0 37.5 18.5t14.5 44.5z
" />
    <glyph glyph-name="oneeighth" unicode="&#x215b;" horiz-adv-x="832" 
d="M310 712l-85 -427h-90l64 321l-101 -73l22 107l101 72h89zM717 712l-462 -712h-100l463 712h99zM806 313q0 -31 -18 -58.5t-44 -42.5q32 -26 32 -74q0 -62 -40.5 -102t-109.5 -40q-55 0 -90 30t-35 87q0 76 68 112q-30 32 -30 75q0 54 40 92.5t104 38.5q55 0 89 -32.5
t34 -85.5zM685 136q0 18 -10 31t-30 13q-23 0 -38.5 -16.5t-15.5 -42.5q0 -18 10 -31t30 -13q23 0 38.5 16.5t15.5 42.5zM715 310q0 16 -9.5 28t-27.5 12q-20 0 -34.5 -15.5t-14.5 -39.5q0 -16 9.5 -27.5t27.5 -11.5q21 0 35 15t14 39z" />
    <glyph glyph-name="threeeighths" unicode="&#x215c;" horiz-adv-x="832" 
d="M345 606q0 -72 -63 -104q33 -26 33 -79q0 -63 -41 -102t-109 -39q-62 0 -92.5 28.5t-30.5 69.5q0 12 2 32h89q-6 -50 38 -50q22 0 37.5 16.5t15.5 43.5q0 44 -39 44h-11l15 76h10q29 0 42 18t13 40q0 37 -32 37q-42 0 -51 -46h-90q22 126 151 126q50 0 81.5 -31t31.5 -80
zM717 712l-462 -712h-100l463 712h99zM806 313q0 -31 -18 -58.5t-44 -42.5q32 -26 32 -74q0 -62 -40.5 -102t-109.5 -40q-55 0 -90 30t-35 87q0 76 68 112q-30 32 -30 75q0 54 40 92.5t104 38.5q55 0 89 -32.5t34 -85.5zM685 136q0 18 -10 31t-30 13q-23 0 -38.5 -16.5
t-15.5 -42.5q0 -18 10 -31t30 -13q23 0 38.5 16.5t15.5 42.5zM715 310q0 16 -9.5 28t-27.5 12q-20 0 -34.5 -15.5t-14.5 -39.5q0 -16 9.5 -27.5t27.5 -11.5q21 0 35 15t14 39z" />
    <glyph glyph-name="fiveeighths" unicode="&#x215d;" horiz-adv-x="832" 
d="M360 712l-16 -82h-162l-14 -74q21 16 54 16q49 0 74 -29.5t25 -71.5q0 -23 -3 -41q-14 -75 -50 -110q-40 -38 -104 -38q-50 0 -81.5 29t-31.5 75q0 16 2 26h86q-1 -5 -1 -12q0 -37 33 -37q41 0 54 67q4 26 4 29q0 37 -33 37q-32 0 -47 -31h-83l50 247h244zM717 712
l-462 -712h-100l463 712h99zM806 313q0 -31 -18 -58.5t-44 -42.5q32 -26 32 -74q0 -62 -40.5 -102t-109.5 -40q-55 0 -90 30t-35 87q0 76 68 112q-30 32 -30 75q0 54 40 92.5t104 38.5q55 0 89 -32.5t34 -85.5zM685 136q0 18 -10 31t-30 13q-23 0 -38.5 -16.5t-15.5 -42.5
q0 -18 10 -31t30 -13q23 0 38.5 16.5t15.5 42.5zM715 310q0 16 -9.5 28t-27.5 12q-20 0 -34.5 -15.5t-14.5 -39.5q0 -16 9.5 -27.5t27.5 -11.5q21 0 35 15t14 39z" />
    <glyph glyph-name="seveneighths" unicode="&#x215e;" horiz-adv-x="832" 
d="M377 712l-16 -81l-192 -346h-92l192 346h-106l-13 -68h-81l29 149h279zM717 712l-462 -712h-100l463 712h99zM806 313q0 -31 -18 -58.5t-44 -42.5q32 -26 32 -74q0 -62 -40.5 -102t-109.5 -40q-55 0 -90 30t-35 87q0 76 68 112q-30 32 -30 75q0 54 40 92.5t104 38.5
q55 0 89 -32.5t34 -85.5zM685 136q0 18 -10 31t-30 13q-23 0 -38.5 -16.5t-15.5 -42.5q0 -18 10 -31t30 -13q23 0 38.5 16.5t15.5 42.5zM715 310q0 16 -9.5 28t-27.5 12q-20 0 -34.5 -15.5t-14.5 -39.5q0 -16 9.5 -27.5t27.5 -11.5q21 0 35 15t14 39z" />
    <glyph glyph-name="uni215F" unicode="&#x215f;" 
d="M310 712l-85 -427h-90l64 321l-101 -73l22 107l101 72h89zM717 712l-462 -712h-100l463 712h99z" />
    <glyph glyph-name="arrowleft" unicode="&#x2190;" horiz-adv-x="1027" 
d="M436 -100l-386 385l386 385h164l-327 -324h704v-123h-704l327 -323h-164z" />
    <glyph glyph-name="arrowup" unicode="&#x2191;" horiz-adv-x="1027" 
d="M899 200l-324 327v-705h-122v705l-324 -327v164l385 385l385 -385v-164z" />
    <glyph glyph-name="arrowright" unicode="&#x2192;" horiz-adv-x="1027" 
d="M429 -100l327 324h-705v122h705l-327 324h164l385 -385l-385 -385h-164z" />
    <glyph glyph-name="arrowdown" unicode="&#x2193;" horiz-adv-x="1027" 
d="M898 208l-385 -386l-385 386v164l324 -327v704h123v-704l323 327v-164z" />
    <glyph glyph-name="uni2196" unicode="&#x2196;" horiz-adv-x="1027" 
d="M884 1l-87 -86l-497 497l1 -460l-116 116v545h545l117 -116l-460 1z" />
    <glyph glyph-name="uni2197" unicode="&#x2197;" horiz-adv-x="1027" 
d="M841 69l-116 -116l2 459l-498 -497l-87 86l498 498l-460 -2l117 116h544v-544z" />
    <glyph glyph-name="uni2198" unicode="&#x2198;" horiz-adv-x="1027" 
d="M841 -85h-544l-117 116l460 -3l-498 498l87 87l498 -497l-2 459l116 -116v-544z" />
    <glyph glyph-name="uni2199" unicode="&#x2199;" horiz-adv-x="1027" 
d="M884 526l-497 -497l460 2l-117 -116h-545v545l116 116l-1 -460l497 497z" />
    <glyph glyph-name="partialdiff" unicode="&#x2202;" horiz-adv-x="527" 
d="M506 538q0 -29 -5 -57l-43 -227q-15 -75 -32.5 -121t-52.5 -81q-58 -58 -151 -58q-82 0 -130.5 46t-48.5 129q0 35 10 85q15 76 35 124.5t58 82.5q57 52 144 52q61 0 88 -34l5 33q2 12 2 18q0 83 -83 83q-34 0 -57 -9t-51 -32l-63 83q74 63 182 63q86 0 139.5 -46
t53.5 -134zM345 334q0 32 -17 50t-45 18q-33 0 -56 -22q-31 -27 -50 -126q-11 -62 -11 -81q0 -32 17 -50t45 -18q33 0 56 22q30 27 50 127q11 62 11 80z" />
    <glyph glyph-name="Delta" unicode="&#x2206;" horiz-adv-x="604" 
d="M550 0h-598l389 712h105zM410 110l-48 403l-214 -403h262z" />
    <glyph glyph-name="product" unicode="&#x220f;" horiz-adv-x="651" 
d="M673 760l-189 -951h-132l166 836h-228l-168 -836h-131l189 951h493z" />
    <glyph glyph-name="summation" unicode="&#x2211;" horiz-adv-x="524" 
d="M584 760l-23 -116h-297l88 -297l-25 -122l-199 -300h298l-23 -116h-451l20 104l258 390l-111 357l20 100h445z" />
    <glyph glyph-name="minus" unicode="&#x2212;" 
d="M485 343l-23 -115h-420l23 115h420z" />
    <glyph glyph-name="uni2219" unicode="&#x2219;" 
d="M412 334q0 -68 -43 -111t-111 -43t-111 43t-43 111t43 111t111 43t111 -43t43 -111z" />
    <glyph glyph-name="radical" unicode="&#x221a;" horiz-adv-x="566" 
d="M635 712l-23 -116h-83l-305 -596h-106l-62 521h129l29 -287l235 478h186z" />
    <glyph glyph-name="infinity" unicode="&#x221e;" horiz-adv-x="808" 
d="M763 285q0 -78 -48 -129t-133 -51q-92 0 -171 90q-79 -90 -171 -90q-85 0 -133 51t-48 129t48 129t133 51q92 0 171 -91q79 91 171 91q85 0 133 -51t48 -129zM644 281q0 29 -18.5 46.5t-44.5 17.5q-24 0 -43 -15.5t-46 -48.5q27 -32 46 -47.5t43 -15.5q27 0 45 17t18 46z
M329 281q-27 33 -46 48.5t-43 15.5q-26 0 -44.5 -17.5t-18.5 -46.5t18 -46t45 -17q24 0 43 15.5t46 47.5z" />
    <glyph glyph-name="integral" unicode="&#x222b;" horiz-adv-x="471" 
d="M501 719l-21 -104h-43q-67 0 -81 -70l-110 -549q-21 -102 -72.5 -142t-138.5 -40h-65l21 105h42q35 0 55 16t27 53l110 550q21 102 72.5 141.5t138.5 39.5h65z" />
    <glyph glyph-name="approxequal" unicode="&#x2248;" horiz-adv-x="576" 
d="M528 167q-85 -78 -169 -78q-52 0 -107 32q-41 24 -76 24q-50 0 -95 -42l-64 84q84 77 169 77q53 0 108 -32q41 -24 75 -24q49 0 95 42zM571 385q-85 -78 -169 -78q-52 0 -107 32q-41 24 -76 24q-49 0 -94 -42l-65 84q84 77 170 77q52 0 107 -32q41 -24 75 -24q50 0 95 42
z" />
    <glyph glyph-name="notequal" unicode="&#x2260;" horiz-adv-x="572" 
d="M574 520l-68 -72h57l-24 -115h-138l-93 -95h213l-23 -115h-294l-128 -136l-66 64l68 72h-57l24 115h138l93 95h-214l24 115h295l127 136z" />
    <glyph glyph-name="lessequal" unicode="&#x2264;" 
d="M526 644l-27 -136l-264 -110l222 -116l-25 -125l-353 199l20 103zM418 78l-24 -120l-353 199l24 120z" />
    <glyph glyph-name="greaterequal" unicode="&#x2265;" 
d="M494 450l-21 -103l-426 -185l27 136l263 109l-222 116l26 126zM460 268l-25 -131l-426 -185l25 130z" />
    <glyph glyph-name="dotmath" unicode="&#x22c5;" 
d="M342 356l-28 -141h-141l28 141h141z" />
    <glyph glyph-name="lozenge" unicode="&#x25ca;" horiz-adv-x="605" 
d="M572 325l-315 -351l-186 382l313 351zM435 341l-81 168l-146 -168l80 -170z" />
    <glyph glyph-name="fi" unicode="&#xfb01;" horiz-adv-x="576" 
d="M392 720l-21 -105h-44q-47 0 -57 -51l-12 -59h92l-19 -95h-92l-82 -410h-124l82 410h-51l19 95h51l15 72q28 143 170 143h73zM557 505l-101 -505h-124l101 505h124zM599 710l-21 -103h-127l20 103h128z" />
    <glyph glyph-name="fl" unicode="&#xfb02;" horiz-adv-x="628" 
d="M597 712l-111 -555q-3 -13 -3 -22q0 -30 38 -30h51l-21 -105h-68q-55 0 -90 30.5t-35 82.5q0 24 4 43l111 556h124zM392 720l-21 -105h-44q-47 0 -57 -51l-12 -59h92l-19 -95h-92l-82 -410h-124l82 410h-51l19 95h51l15 72q28 143 170 143h73z" />
    <glyph glyph-name="zero.numr" horiz-adv-x="316" 
d="M345 609q0 -18 -3 -30l-32 -165q-14 -70 -54.5 -101.5t-93.5 -31.5t-83 31t-30 76q0 15 3 30l33 165q14 70 54 101.5t93 31.5t83 -31t30 -76zM254 594q0 33 -32 33q-39 0 -48 -48l-31 -156q-3 -11 -3 -19q0 -17 9.5 -25.5t23.5 -8.5q39 0 48 48l31 157q2 14 2 19z" />
    <glyph glyph-name="one.numr" horiz-adv-x="316" 
d="M310 712l-85 -427h-90l64 321l-101 -73l22 107l101 72h89z" />
    <glyph glyph-name="two.numr" horiz-adv-x="316" 
d="M345 606q0 -61 -68 -124l-125 -117h151l-16 -80h-263l17 80l177 169q36 35 36 65q0 37 -34 37q-41 0 -49 -46h-90q24 126 148 126q55 0 85.5 -29.5t30.5 -80.5z" />
    <glyph glyph-name="three.numr" horiz-adv-x="316" 
d="M345 606q0 -72 -63 -104q33 -26 33 -79q0 -63 -41 -102t-109 -39q-62 0 -92.5 28.5t-30.5 69.5q0 12 2 32h89q-6 -50 38 -50q22 0 37.5 16.5t15.5 43.5q0 44 -39 44h-11l15 76h10q29 0 42 18t13 40q0 37 -32 37q-42 0 -51 -46h-90q22 126 151 126q50 0 81.5 -31t31.5 -80
z" />
    <glyph glyph-name="four.numr" horiz-adv-x="316" 
d="M326 426l-16 -81h-33l-12 -60h-85l12 60h-170l15 81l193 286h100l-194 -286h71l13 66h86l-14 -66h34z" />
    <glyph glyph-name="five.numr" horiz-adv-x="316" 
d="M360 712l-16 -82h-162l-14 -74q21 16 54 16q49 0 74 -29.5t25 -71.5q0 -23 -3 -41q-14 -75 -50 -110q-40 -38 -104 -38q-50 0 -81.5 29t-31.5 75q0 16 2 26h86q-1 -5 -1 -12q0 -37 33 -37q41 0 54 67q4 26 4 29q0 37 -33 37q-32 0 -47 -31h-83l50 247h244z" />
    <glyph glyph-name="six.numr" horiz-adv-x="316" 
d="M326 428q0 -63 -39.5 -105t-105.5 -42q-63 0 -95 36t-32 82q0 32 11.5 59t39.5 69l123 185h101l-119 -174q16 2 22 2q41 0 67.5 -30t26.5 -82zM236 425q0 44 -40 44q-24 0 -38 -18t-14 -44q0 -22 11 -33.5t29 -11.5q23 0 37.5 18.5t14.5 44.5z" />
    <glyph glyph-name="seven.numr" horiz-adv-x="316" 
d="M377 712l-16 -81l-192 -346h-92l192 346h-106l-13 -68h-81l29 149h279z" />
    <glyph glyph-name="eight.numr" horiz-adv-x="316" 
d="M346 598q0 -31 -18 -58.5t-44 -42.5q32 -26 32 -74q0 -62 -40.5 -102t-109.5 -40q-55 0 -90 30t-35 87q0 76 68 112q-30 32 -30 75q0 54 40 92.5t104 38.5q55 0 89 -32.5t34 -85.5zM225 421q0 18 -10 31t-30 13q-23 0 -38.5 -16.5t-15.5 -42.5q0 -18 10 -31t30 -13
q23 0 38.5 16.5t15.5 42.5zM255 595q0 16 -9.5 28t-27.5 12q-20 0 -34.5 -15.5t-14.5 -39.5q0 -16 9.5 -27.5t27.5 -11.5q21 0 35 15t14 39z" />
    <glyph glyph-name="nine.numr" horiz-adv-x="316" 
d="M348 599q0 -32 -11.5 -59.5t-39.5 -69.5l-123 -185h-101l119 174q-8 -2 -22 -2q-42 0 -68 30t-26 82q0 64 39.5 105.5t104.5 41.5q64 0 96 -35.5t32 -81.5zM258 590q0 22 -11 33.5t-29 11.5q-25 0 -38.5 -18t-13.5 -45q0 -44 40 -44q25 0 38.5 17.5t13.5 44.5z" />
    <glyph glyph-name="zero.dnom" horiz-adv-x="316" 
d="M287 324q0 -18 -3 -30l-32 -165q-14 -70 -54.5 -101.5t-93.5 -31.5t-83 31t-30 76q0 15 3 30l33 165q14 70 54 101.5t93 31.5t83 -31t30 -76zM196 309q0 33 -32 33q-39 0 -48 -48l-31 -156q-3 -11 -3 -19q0 -17 9.5 -25.5t23.5 -8.5q39 0 48 48l31 157q2 14 2 19z" />
    <glyph glyph-name="one.dnom" horiz-adv-x="316" 
d="M253 427l-85 -427h-90l64 321l-101 -73l22 107l101 72h89z" />
    <glyph glyph-name="two.dnom" horiz-adv-x="316" 
d="M288 321q0 -61 -68 -124l-125 -117h151l-16 -80h-263l17 80l177 169q36 35 36 65q0 37 -34 37q-41 0 -49 -46h-90q24 126 148 126q55 0 85.5 -29.5t30.5 -80.5z" />
    <glyph glyph-name="three.dnom" horiz-adv-x="316" 
d="M288 321q0 -73 -63 -104q33 -26 33 -79q0 -63 -41 -102t-109 -39q-62 0 -92.5 28.5t-30.5 69.5q0 12 2 32h89q-6 -50 38 -50q22 0 37.5 16.5t15.5 43.5q0 44 -39 44h-11l15 76h10q29 0 42 18t13 40q0 37 -32 37q-42 0 -51 -46h-90q22 126 151 126q50 0 81.5 -31t31.5 -80
z" />
    <glyph glyph-name="four.dnom" horiz-adv-x="316" 
d="M269 141l-16 -81h-33l-12 -60h-85l12 60h-170l15 81l193 286h100l-194 -286h71l13 66h86l-14 -66h34z" />
    <glyph glyph-name="five.dnom" horiz-adv-x="316" 
d="M303 427l-16 -82h-162l-14 -74q21 16 54 16q49 0 74 -29.5t25 -71.5q0 -23 -3 -41q-14 -75 -50 -110q-40 -38 -104 -38q-50 0 -81.5 29t-31.5 75q0 16 2 26h86q-1 -5 -1 -12q0 -37 33 -37q41 0 54 67q4 26 4 29q0 37 -33 37q-31 0 -47 -31h-83l50 247h244z" />
    <glyph glyph-name="six.dnom" horiz-adv-x="316" 
d="M269 143q0 -63 -39.5 -105t-105.5 -42q-63 0 -95 36t-32 82q0 32 11.5 59t39.5 69l123 185h101l-119 -174q16 2 22 2q41 0 67.5 -30t26.5 -82zM179 140q0 44 -40 44q-24 0 -38 -18t-14 -44q0 -22 11 -33.5t29 -11.5q23 0 37.5 18.5t14.5 44.5z" />
    <glyph glyph-name="seven.dnom" horiz-adv-x="316" 
d="M320 427l-16 -81l-192 -346h-92l192 346h-106l-13 -68h-81l29 149h279z" />
    <glyph glyph-name="eight.dnom" horiz-adv-x="316" 
d="M290 313q0 -31 -18 -58.5t-44 -42.5q32 -26 32 -74q0 -62 -40.5 -102t-109.5 -40q-55 0 -90 30t-35 87q0 76 68 112q-30 32 -30 75q0 54 40 92.5t104 38.5q55 0 89 -32.5t34 -85.5zM169 136q0 18 -10 31t-30 13q-23 0 -38.5 -16.5t-15.5 -42.5q0 -18 10 -31t30 -13
q23 0 38.5 16.5t15.5 42.5zM199 310q0 16 -9.5 28t-27.5 12q-20 0 -34.5 -15.5t-14.5 -39.5q0 -16 9.5 -27.5t27.5 -11.5q21 0 35 15t14 39z" />
    <glyph glyph-name="nine.dnom" horiz-adv-x="316" 
d="M292 314q0 -32 -11.5 -59.5t-39.5 -69.5l-123 -185h-101l119 174q-8 -2 -22 -2q-42 0 -68 30t-26 82q0 64 39.5 105.5t104.5 41.5q64 0 96 -35.5t32 -81.5zM202 305q0 22 -11 33.5t-29 11.5q-25 0 -38.5 -18t-13.5 -45q0 -44 40 -44q25 0 38.5 17.5t13.5 44.5z" />
    <glyph glyph-name="space.frac" horiz-adv-x="44" 
 />
    <glyph glyph-name="zero.osf" 
d="M494 432q0 -24 -5 -49l-35 -175q-23 -113 -88 -163.5t-148 -50.5q-80 0 -129 47.5t-49 123.5q0 24 5 49l35 175q23 113 88.5 163.5t148.5 50.5q80 0 128.5 -47.5t48.5 -123.5zM371 423q0 35 -19 52t-46 17q-84 0 -103 -99l-36 -184q-4 -22 -4 -35q0 -35 19 -52t46 -17
q84 0 103 99l36 184q4 22 4 35z" />
    <glyph glyph-name="one.osf" horiz-adv-x="416" 
d="M381 597l-119 -597h-124l91 455l-162 -117l28 143l162 116h124z" />
    <glyph glyph-name="two.osf" horiz-adv-x="526" 
d="M497 447q0 -54 -34.5 -99.5t-118.5 -114.5l-149 -122h257l-23 -111h-431l22 111l257 204q56 45 75.5 70t19.5 57q0 34 -18.5 52t-49.5 18q-82 0 -102 -90h-124q19 102 81.5 151.5t158.5 49.5q85 0 132 -49t47 -127z" />
    <glyph glyph-name="three.osf" horiz-adv-x="509" 
d="M482 434q0 -130 -109 -185q64 -36 64 -127q0 -102 -68.5 -173t-168.5 -71q-93 0 -147.5 46t-54.5 123q0 17 3 37h122q-2 -16 -2 -22q0 -32 20.5 -52t59.5 -20q47 0 79 37.5t32 88.5q0 37 -20 58t-59 21h-20l21 108h20q44 0 74 36t30 81q0 34 -18 53t-48 19q-35 0 -64 -23
t-39 -64h-125q23 99 85.5 148.5t158.5 49.5q78 0 126 -48t48 -121z" />
    <glyph glyph-name="four.osf" horiz-adv-x="564" 
d="M507 150l-23 -116h-76l-31 -157h-119l31 157h-295l23 116l325 491h137l-326 -491h158l30 148h118l-29 -148h77z" />
    <glyph glyph-name="five.osf" horiz-adv-x="524" 
d="M525 597l-23 -111h-273l-31 -158q41 33 102 33q78 0 118.5 -47t40.5 -115q0 -35 -7 -74q-25 -126 -81 -183q-61 -63 -165 -63q-83 0 -131 46.5t-48 119.5q0 21 2 36h119q-1 -7 -1 -20q0 -71 66 -71q48 0 74 35.5t38 99.5q7 40 7 58q0 73 -64 73q-63 0 -96 -59h-112
l80 400h385z" />
    <glyph glyph-name="six.osf" horiz-adv-x="519" 
d="M478 245q0 -106 -65.5 -178.5t-173.5 -72.5q-105 0 -157 60.5t-52 144.5q0 95 89 220l221 309h135l-217 -297q23 8 52 8q67 0 117.5 -48t50.5 -146zM355 237q0 48 -24 75.5t-63 27.5q-49 0 -82 -39t-33 -94q0 -48 24 -75.5t63 -27.5q48 0 81.5 38.5t33.5 94.5z" />
    <glyph glyph-name="seven.osf" horiz-adv-x="528" 
d="M564 597l-22 -111l-366 -604h-136l366 604h-200l-22 -109h-118l44 220h454z" />
    <glyph glyph-name="eight.osf" horiz-adv-x="533" 
d="M528 534q0 -56 -30.5 -104t-78.5 -72q59 -46 59 -131q0 -100 -64.5 -166.5t-178.5 -66.5q-86 0 -141.5 47.5t-55.5 138.5q0 63 31 114t91 81q-53 47 -53 123q0 93 65 156.5t167 63.5q84 0 136.5 -50t52.5 -134zM353 226q0 36 -21 60.5t-58 24.5q-48 0 -79.5 -34.5
t-31.5 -86.5q0 -36 21 -60.5t58 -24.5q48 0 79.5 34.5t31.5 86.5zM403 531q0 32 -18.5 54t-52.5 22q-44 0 -72 -33.5t-28 -79.5q0 -32 18.5 -53.5t52.5 -21.5q44 0 72 33t28 79z" />
    <glyph glyph-name="nine.osf" horiz-adv-x="519" 
d="M506 398q0 -95 -89 -220l-221 -309h-135l217 297q-23 -8 -53 -8q-67 0 -117 48t-50 146q0 106 65.5 178.5t173.5 72.5q105 0 157 -60.5t52 -144.5zM383 390q0 46 -24 74.5t-64 28.5q-47 0 -80.5 -38.5t-33.5 -94.5q0 -46 24.5 -74.5t64.5 -28.5q48 0 80.5 39t32.5 94z
" />
    <glyph glyph-name="zero.lf" 
d="M517 547q0 -24 -5 -49l-57 -290q-22 -113 -88 -163.5t-149 -50.5q-80 0 -129 47.5t-49 123.5q0 24 5 49l58 290q22 113 88 163.5t149 50.5q80 0 128.5 -47.5t48.5 -123.5zM394 538q0 35 -19 52t-46 17q-83 0 -103 -99l-58 -299q-5 -27 -5 -35q0 -35 19 -52t46 -17
q83 0 103 99l59 299q4 22 4 35z" />
    <glyph glyph-name="one.lf" horiz-adv-x="486" 
d="M451 712l-142 -712h-124l114 570l-162 -117l28 143l162 116h124z" />
    <glyph glyph-name="two.lf" 
d="M519 541q0 -41 -16 -77t-34 -58t-57 -62l-228 -233h262l-23 -111h-420l23 111l308 313q33 34 46.5 57t13.5 54q0 34 -18 53t-50 19q-81 0 -103 -93h-125q18 101 80 152.5t161 51.5q84 0 132 -46.5t48 -130.5z" />
    <glyph glyph-name="three.lf" 
d="M511 549q0 -130 -109 -185q33 -19 48 -48.5t15 -78.5q0 -102 -68 -172.5t-168 -70.5q-93 0 -147.5 46t-54.5 123q0 17 3 36h122q-2 -16 -2 -22q0 -32 20.5 -52t59.5 -20q46 0 78.5 38t32.5 89q0 36 -20.5 57t-59.5 21h-19l21 108h20q44 0 74 36t30 81q0 34 -18 53t-49 19
q-35 0 -63.5 -23t-38.5 -64h-125q23 99 85.5 148.5t158.5 49.5q78 0 126 -48t48 -121z" />
    <glyph glyph-name="four.lf" 
d="M487 712l-328 -491h141l27 132h118l-26 -132h65l-24 -117h-63l-21 -104h-118l20 104h-281l23 117l329 491h138z" />
    <glyph glyph-name="five.lf" 
d="M542 712l-22 -111h-273l-31 -158q41 33 102 33q78 0 118.5 -47t40.5 -115q0 -36 -7 -74q-24 -125 -83 -184q-62 -62 -163 -62q-83 0 -131 46.5t-48 119.5q0 21 2 36h119q-1 -7 -1 -20q0 -71 66 -71q48 0 74 35.5t38 99.5q7 40 7 58q0 73 -64 73q-63 0 -96 -59h-112
l80 400h384z" />
    <glyph glyph-name="six.lf" 
d="M468 712l-203 -300q21 6 42 6q71 0 115 -50.5t44 -133.5q0 -104 -64 -172t-165 -68q-100 0 -150.5 57t-50.5 132q0 51 18.5 94.5t63.5 112.5l213 322h137zM342 230q0 42 -21.5 65t-57.5 23q-48 0 -75.5 -37.5t-27.5 -86.5q0 -42 21 -65.5t57 -23.5q47 0 75.5 37.5
t28.5 87.5z" />
    <glyph glyph-name="seven.lf" 
d="M571 712l-22 -111l-334 -601h-137l333 601h-180l-22 -109h-118l43 220h437z" />
    <glyph glyph-name="eight.lf" 
d="M520 534q0 -56 -30.5 -104t-78.5 -72q59 -46 59 -131q0 -99 -65 -166t-179 -67q-86 0 -141.5 47.5t-55.5 138.5q0 63 31 114t91 81q-52 46 -52 123q0 93 64.5 156.5t166.5 63.5q84 0 137 -50t53 -134zM344 226q0 36 -21 60.5t-58 24.5q-48 0 -79.5 -34.5t-31.5 -86.5
q0 -36 21.5 -60.5t58.5 -24.5q48 0 79 34t31 87zM395 531q0 32 -18.5 54t-52.5 22q-44 0 -72.5 -33.5t-28.5 -79.5q0 -32 18.5 -53.5t52.5 -21.5q44 0 72.5 33t28.5 79z" />
    <glyph glyph-name="nine.lf" 
d="M522 529q0 -51 -18.5 -94.5t-63.5 -112.5l-214 -322h-136l203 300q-21 -6 -42 -6q-71 0 -115 50.5t-44 133.5q0 104 64 172t165 68q100 0 150.5 -57t50.5 -132zM398 518q0 42 -21.5 65.5t-57.5 23.5q-47 0 -75 -37.5t-28 -87.5q0 -42 21.5 -65t57.5 -23q48 0 75.5 37.5
t27.5 86.5z" />
    <glyph glyph-name="zero.tosf" 
d="M485 432q0 -24 -5 -49l-35 -175q-23 -113 -88 -163.5t-148 -50.5q-80 0 -129 47.5t-49 123.5q0 24 5 49l35 175q23 113 88.5 163.5t148.5 50.5q80 0 128.5 -47.5t48.5 -123.5zM362 423q0 35 -19 52t-46 17q-84 0 -103 -99l-36 -184q-4 -22 -4 -35q0 -35 19 -52t46 -17
q84 0 103 99l36 184q4 22 4 35z" />
    <glyph glyph-name="one.tosf" 
d="M415 597l-119 -597h-124l91 455l-162 -117l28 143l162 116h124z" />
    <glyph glyph-name="two.tosf" 
d="M507 447q0 -54 -34.5 -99.5t-118.5 -114.5l-149 -122h257l-23 -111h-431l22 111l257 204q56 45 75.5 70t19.5 57q0 34 -18.5 52t-49.5 18q-82 0 -102 -90h-124q19 102 81.5 151.5t158.5 49.5q85 0 132 -49t47 -127z" />
    <glyph glyph-name="three.tosf" 
d="M500 434q0 -130 -109 -185q64 -36 64 -127q0 -102 -68.5 -173t-168.5 -71q-93 0 -147.5 46t-54.5 123q0 17 3 37h122q-2 -16 -2 -22q0 -32 20.5 -52t59.5 -20q47 0 79 37.5t32 88.5q0 37 -20 58t-59 21h-20l21 108h20q44 0 74 36t30 81q0 34 -18 53t-48 19q-35 0 -64 -23
t-39 -64h-125q23 99 85.5 148.5t158.5 49.5q78 0 126 -48t48 -121z" />
    <glyph glyph-name="four.tosf" 
d="M514 150l-23 -116h-76l-31 -157h-119l31 157h-295l23 116l325 491h137l-326 -491h158l30 148h118l-29 -148h77z" />
    <glyph glyph-name="five.tosf" 
d="M507 597l-23 -111h-273l-31 -158q41 33 102 33q78 0 118.5 -47t40.5 -115q0 -35 -7 -74q-25 -126 -81 -183q-61 -63 -165 -63q-83 0 -131 46.5t-48 119.5q0 21 2 36h119q-1 -7 -1 -20q0 -71 66 -71q48 0 74 35.5t38 99.5q7 40 7 58q0 73 -64 73q-63 0 -96 -59h-112
l80 400h385z" />
    <glyph glyph-name="six.tosf" 
d="M482 245q0 -106 -65.5 -178.5t-173.5 -72.5q-105 0 -157 60.5t-52 144.5q0 95 89 220l221 309h135l-217 -297q23 8 52 8q67 0 117.5 -48t50.5 -146zM359 237q0 48 -24 75.5t-63 27.5q-49 0 -82 -39t-33 -94q0 -48 24 -75.5t63 -27.5q48 0 81.5 38.5t33.5 94.5z" />
    <glyph glyph-name="seven.tosf" 
d="M520 597l-22 -111l-366 -604h-136l366 604h-200l-22 -109h-118l44 220h454z" />
    <glyph glyph-name="eight.tosf" 
d="M503 534q0 -56 -30.5 -104t-78.5 -72q59 -46 59 -131q0 -100 -64.5 -166.5t-178.5 -66.5q-86 0 -141.5 47.5t-55.5 138.5q0 63 31 114t91 81q-53 47 -53 123q0 93 65 156.5t167 63.5q84 0 136.5 -50t52.5 -134zM328 226q0 36 -21 60.5t-58 24.5q-48 0 -79.5 -34.5
t-31.5 -86.5q0 -36 21 -60.5t58 -24.5q48 0 79.5 34.5t31.5 86.5zM378 531q0 32 -18.5 54t-52.5 22q-44 0 -72 -33.5t-28 -79.5q0 -32 18.5 -53.5t52.5 -21.5q44 0 72 33t28 79z" />
    <glyph glyph-name="nine.tosf" 
d="M482 398q0 -95 -89 -220l-221 -309h-135l217 297q-23 -8 -53 -8q-67 0 -117 48t-50 146q0 106 65.5 178.5t173.5 72.5q105 0 157 -60.5t52 -144.5zM359 390q0 46 -24 74.5t-64 28.5q-47 0 -80.5 -38.5t-33.5 -94.5q0 -46 24.5 -74.5t64.5 -28.5q48 0 80.5 39t32.5 94z
" />
    <glyph glyph-name="uni2007.tosf" 
 />
    <glyph glyph-name="hyphen.case" horiz-adv-x="405" 
d="M381 413l-23 -115h-293l23 115h293z" />
    <glyph glyph-name="exclamdown.case" horiz-adv-x="330" 
d="M241 490l-66 -490h-153l126 490h93zM302 712l-26 -133h-131l26 133h131z" />
    <glyph glyph-name="guillemotleft.case" horiz-adv-x="597" 
d="M604 603l-33 -160l-111 -96l73 -96l-27 -142l-189 249zM339 603l-33 -160l-111 -96l73 -96l-27 -142l-189 249z" />
    <glyph glyph-name="uni00AD.case" horiz-adv-x="405" 
d="M381 413l-23 -115h-293l23 115h293z" />
    <glyph glyph-name="guillemotright.case" horiz-adv-x="597" 
d="M586 355l-287 -246l32 160l111 96l-73 97l28 141zM321 355l-287 -246l32 160l112 96l-74 97l28 141z" />
    <glyph glyph-name="questiondown.case" horiz-adv-x="497" 
d="M423 188q-17 -98 -80.5 -146t-157.5 -48q-68 0 -116.5 43.5t-48.5 115.5q0 87 74 167l89 98q22 24 28 51l4 22h124l-7 -32q-13 -61 -54 -105l-89 -94q-44 -48 -44 -94q0 -26 16 -43.5t43 -17.5q79 0 95 83h124zM382 712l-25 -133h-131l26 133h130z" />
    <glyph glyph-name="endash.case" 
d="M499 413l-23 -115h-420l23 115h420z" />
    <glyph glyph-name="emdash.case" horiz-adv-x="974" 
d="M950 413l-23 -115h-863l23 115h863z" />
    <glyph glyph-name="guilsinglleft.case" horiz-adv-x="333" 
d="M339 603l-33 -160l-111 -96l73 -96l-27 -142l-189 249z" />
    <glyph glyph-name="guilsinglright.case" horiz-adv-x="333" 
d="M321 355l-287 -246l32 160l111 96l-73 97l28 141z" />
    <glyph glyph-name="caroncomma.ss01" horiz-adv-x="258" 
d="M736 747l-24 -121l-126 -85l42 206h108z" />
    <glyph glyph-name="commaaccent.ss01" horiz-adv-x="500" 
d="M263 -117q0 -51 -36.5 -81t-88.5 -30h-9l13 63q21 -1 33.5 10.5t12.5 29.5q0 30 -32 33l13 63q39 -2 66.5 -25.5t27.5 -62.5z" />
    <glyph glyph-name="commaturn.ss01" horiz-adv-x="609" 
d="M259 655q0 51 36.5 81t88.5 30h9l-13 -63q-21 1 -33.5 -10.5t-12.5 -29.5q0 -30 32 -33l-13 -63q-39 2 -66.5 25.5t-27.5 62.5z" />
    <glyph glyph-name="exclam.ss01" horiz-adv-x="330" 
d="M348 712l-126 -490h-93l66 490h153zM223 71q0 -31 -22 -52.5t-53 -21.5t-52.5 21.5t-21.5 52.5t21.5 53.5t52.5 22.5t53 -22.5t22 -53.5z" />
    <glyph glyph-name="period.ss01" horiz-adv-x="280" 
d="M188 80q0 -34 -24 -58.5t-59 -24.5t-59 24.5t-24 58.5q0 35 24.5 59.5t58.5 24.5t58.5 -24.5t24.5 -59.5z" />
    <glyph glyph-name="colon.ss01" horiz-adv-x="303" 
d="M265 345q0 -35 -24.5 -59t-58.5 -24t-58.5 24t-24.5 59t24.5 59t58.5 24t58.5 -24t24.5 -59zM212 80q0 -34 -24 -58.5t-59 -24.5q-34 0 -58 24t-24 59t24 59.5t58 24.5t58.5 -24.5t24.5 -59.5z" />
    <glyph glyph-name="semicolon.ss01" horiz-adv-x="303" 
d="M213 142l-40 -197l-157 -110l61 307h136zM264 345q0 -35 -24 -59t-59 -24t-59 24t-24 59t24 59t59 24t59 -24t24 -59z" />
    <glyph glyph-name="question.ss01" horiz-adv-x="497" 
d="M518 559q0 -86 -74 -166l-89 -99q-22 -24 -28 -51l-5 -21h-124l7 31q13 61 54 105l89 94q45 49 45 94q0 26 -16 43.5t-43 17.5q-39 0 -63.5 -22t-32.5 -61h-124q17 98 80.5 146t157.5 48q68 0 117 -43.5t49 -115.5zM309 71q0 -31 -22 -52.5t-53 -21.5t-52.5 21.5
t-21.5 52.5t21.5 53.5t52.5 22.5t53 -22.5t22 -53.5z" />
    <glyph glyph-name="at.ss01" horiz-adv-x="956" 
d="M919 337q0 -123 -85 -211.5t-216 -88.5h-100l9 47q-50 -53 -113 -53q-66 0 -103.5 37t-37.5 97q0 32 12 95q15 73 31.5 115t51.5 72q46 41 118 41q74 0 107 -53l9 47h113l-74 -371q86 5 135.5 70.5t49.5 155.5q0 126 -82 201.5t-218 75.5q-153 0 -258.5 -104t-105.5 -256
q0 -166 99 -262t270 -96h73l-16 -81h-74q-202 0 -326 123t-124 316q0 190 133 318.5t329 128.5q176 0 284.5 -101.5t108.5 -262.5zM563 322q0 33 -16.5 49.5t-42.5 16.5q-34 0 -57 -21q-33 -30 -48 -108q-7 -37 -7 -62q0 -33 17 -49.5t43 -16.5q35 0 58 22q31 29 46 107
q7 37 7 62z" />
    <glyph glyph-name="C.ss01" horiz-adv-x="539" 
d="M562 631l-98 -83q-39 54 -94 54t-93 -41q-22 -24 -36 -64.5t-35 -140.5q-20 -100 -20 -150q0 -43 25 -69.5t70 -26.5q62 0 112 54l76 -93q-81 -77 -193 -77q-105 0 -164.5 58t-59.5 144q0 50 22 160q26 125 47.5 183.5t62.5 100.5q77 78 194 78q63 0 106 -21t78 -66z" />
    <glyph glyph-name="G.ss01" horiz-adv-x="609" 
d="M577 621l-101 -83q-43 64 -102 64q-58 0 -96 -40q-25 -25 -38.5 -66t-33.5 -140q-21 -100 -21 -151q0 -48 28 -71.5t68 -23.5q50 0 91 37t55 106l6 31h-123l20 110h255l-19 -102q-15 -78 -37 -128t-62 -90q-80 -80 -195 -80q-104 0 -162 58.5t-58 143.5q0 56 22 160
q27 134 46 187t60 94q80 81 203 81t194 -97z" />
    <glyph glyph-name="a.ss01" horiz-adv-x="536" 
d="M520 521l-103 -521h-120l11 52q-49 -58 -129 -58q-73 0 -109 42.5t-36 102.5q0 45 15 122q17 86 36.5 136.5t49.5 78.5q54 51 134 51q81 0 121 -60l11 54h119zM355 344q0 31 -15.5 51.5t-48.5 20.5q-40 0 -66 -26q-33 -33 -52 -129q-10 -54 -10 -84q0 -31 15.5 -51.5
t48.5 -20.5q40 0 66 26q33 33 52 130q10 54 10 83z" />
    <glyph glyph-name="i.ss01" horiz-adv-x="262" 
d="M243 505l-101 -505h-124l101 505h124zM288 667q0 -32 -23 -55t-55 -23t-55 23t-23 55t23 55t55 23t55 -23t23 -55z" />
    <glyph glyph-name="j.ss01" horiz-adv-x="262" 
d="M288 667q0 -32 -23 -55t-55 -23t-55 23t-23 55t23 55t55 23t55 -23t23 -55zM243 505l-110 -553q-14 -69 -57 -108t-111 -39h-77l21 105h45q46 0 56 53l109 542h124z" />
    <glyph glyph-name="exclamdown.ss01" horiz-adv-x="330" 
d="M203 299l-66 -490h-153l126 490h93zM258 450q0 -31 -21.5 -53t-52.5 -22t-52.5 22t-21.5 53t21.5 52.5t52.5 21.5t52.5 -21.5t21.5 -52.5z" />
    <glyph glyph-name="dieresis.ss01" horiz-adv-x="475" 
d="M512 663q0 -27 -19 -46t-46 -19q-26 0 -45 19t-19 45q0 27 19 46t45 19q27 0 46 -19t19 -45zM296 663q0 -27 -19 -46t-45 -19q-27 0 -46 19t-19 45q0 27 19 46t46 19q26 0 45 -19t19 -45z" />
    <glyph glyph-name="ordfeminine.ss01" horiz-adv-x="444" 
d="M475 713l-83 -417h-96l8 41q-39 -46 -103 -46q-54 0 -85 33.5t-31 84.5q0 31 13 95q26 133 68 173q42 41 107 41q66 0 98 -48l8 43h96zM342 571q0 56 -51 56q-32 0 -52 -20q-27 -26 -42 -103q-7 -37 -7 -66q0 -56 51 -56q32 0 52 20q27 27 41 102q8 42 8 67z" />
    <glyph glyph-name="periodcentered.ss01" horiz-adv-x="280" 
d="M229 285q0 -35 -24.5 -59.5t-58.5 -24.5t-58.5 24.5t-24.5 59.5t24.5 59t58.5 24t58.5 -24t24.5 -59z" />
    <glyph glyph-name="cedilla.ss01" horiz-adv-x="500" 
d="M263 -117q0 -51 -36.5 -81t-88.5 -30h-9l13 63h2q20 0 32 11t12 29q0 30 -32 33l13 63q39 -2 66.5 -25.5t27.5 -62.5z" />
    <glyph glyph-name="questiondown.ss01" horiz-adv-x="497" 
d="M386 -3q-17 -98 -80.5 -146t-157.5 -48q-68 0 -116.5 43.5t-48.5 115.5q0 87 74 167l89 98q22 24 28 51l4 22h124l-7 -32q-13 -61 -54 -105l-89 -94q-44 -48 -44 -94q0 -26 16 -43.5t43 -17.5q79 0 95 83h124zM341 450q0 -31 -22 -53t-53 -22t-52.5 22t-21.5 53
t21.5 52.5t52.5 21.5t53 -21.5t22 -52.5z" />
    <glyph glyph-name="Adieresis.ss01" horiz-adv-x="607" 
d="M552 0h-134l-15 130h-241l-67 -130h-141l388 712h105zM393 238l-34 274l-143 -274h177zM584 841q0 -27 -19 -46t-46 -19q-26 0 -45 19t-19 45q0 27 19 46t45 19q27 0 46 -19t19 -45zM368 841q0 -27 -19 -46t-45 -19q-27 0 -46 19t-19 45q0 27 19 46t46 19q26 0 45 -19
t19 -45z" />
    <glyph glyph-name="Ccedilla.ss01" horiz-adv-x="539" 
d="M562 631l-98 -83q-39 54 -94 54t-93 -41q-22 -24 -36 -64.5t-35 -140.5q-20 -100 -20 -150q0 -43 25 -69.5t70 -26.5q62 0 112 54l76 -93q-81 -77 -193 -77q-105 0 -164.5 58t-59.5 144q0 50 22 160q26 125 47.5 183.5t62.5 100.5q77 78 194 78q63 0 106 -21t78 -66z
M301 -117q0 -51 -36.5 -81t-88.5 -30h-9l13 63h2q20 0 32 11t12 29q0 30 -32 33l13 63q39 -2 66.5 -25.5t27.5 -62.5z" />
    <glyph glyph-name="Edieresis.ss01" horiz-adv-x="578" 
d="M615 712l-23 -116h-312l-36 -179h269l-23 -116h-269l-37 -185h318l-23 -116h-451l143 712h444zM573 841q0 -27 -19 -46t-46 -19q-26 0 -45 19t-19 45q0 27 19 46t45 19q27 0 46 -19t19 -45zM357 841q0 -27 -19 -46t-45 -19q-27 0 -46 19t-19 45q0 27 19 46t46 19
q26 0 45 -19t19 -45z" />
    <glyph glyph-name="Idieresis.ss01" horiz-adv-x="290" 
d="M303 712l-143 -712h-132l143 712h132zM428 841q0 -27 -19 -46t-46 -19q-26 0 -45 19t-19 45q0 27 19 46t45 19q27 0 46 -19t19 -45zM212 841q0 -27 -19 -46t-45 -19q-27 0 -46 19t-19 45q0 27 19 46t46 19q26 0 45 -19t19 -45z" />
    <glyph glyph-name="Odieresis.ss01" horiz-adv-x="611" 
d="M595 516q0 -60 -20 -160q-23 -118 -43.5 -177t-62.5 -103q-76 -82 -201 -82q-100 0 -157.5 58t-57.5 144q0 60 20 160q23 118 43.5 177t62.5 103q76 82 201 82q100 0 157.5 -58t57.5 -144zM463 505q0 46 -26.5 71.5t-65.5 25.5q-56 0 -95 -43q-21 -23 -36.5 -66.5
t-34.5 -136.5q-20 -100 -20 -149q0 -46 26.5 -71.5t65.5 -25.5q56 0 95 43q21 23 36.5 66.5t34.5 136.5q20 98 20 149zM584 841q0 -27 -19 -46t-46 -19q-26 0 -45 19t-19 45q0 27 19 46t45 19q27 0 46 -19t19 -45zM368 841q0 -27 -19 -46t-45 -19q-27 0 -46 19t-19 45
q0 27 19 46t46 19q26 0 45 -19t19 -45z" />
    <glyph glyph-name="Udieresis.ss01" horiz-adv-x="635" 
d="M658 712l-94 -468q-25 -125 -102.5 -187.5t-182.5 -62.5q-93 0 -155 55.5t-62 147.5q0 26 7 61l91 454h132l-93 -462q-5 -25 -5 -44q0 -40 23.5 -67.5t70.5 -27.5q57 0 95 37.5t52 108.5l91 455h132zM600 841q0 -27 -19 -46t-46 -19q-26 0 -45 19t-19 45q0 27 19 46
t45 19q27 0 46 -19t19 -45zM384 841q0 -27 -19 -46t-45 -19q-27 0 -46 19t-19 45q0 27 19 46t46 19q26 0 45 -19t19 -45z" />
    <glyph glyph-name="agrave.ss01" horiz-adv-x="536" 
d="M520 521l-103 -521h-120l11 52q-49 -58 -129 -58q-73 0 -109 42.5t-36 102.5q0 45 15 122q17 86 36.5 136.5t49.5 78.5q54 51 134 51q81 0 121 -60l11 54h119zM355 344q0 31 -15.5 51.5t-48.5 20.5q-40 0 -66 -26q-33 -33 -52 -129q-10 -54 -10 -84q0 -31 15.5 -51.5
t48.5 -20.5q40 0 66 26q33 33 52 130q10 54 10 83zM366 601h-91l-72 167h118z" />
    <glyph glyph-name="aacute.ss01" horiz-adv-x="536" 
d="M520 521l-103 -521h-120l11 52q-49 -58 -129 -58q-73 0 -109 42.5t-36 102.5q0 45 15 122q17 86 36.5 136.5t49.5 78.5q54 51 134 51q81 0 121 -60l11 54h119zM355 344q0 31 -15.5 51.5t-48.5 20.5q-40 0 -66 -26q-33 -33 -52 -129q-10 -54 -10 -84q0 -31 15.5 -51.5
t48.5 -20.5q40 0 66 26q33 33 52 130q10 54 10 83zM497 768l-130 -167h-100l111 167h119z" />
    <glyph glyph-name="acircumflex.ss01" horiz-adv-x="536" 
d="M520 521l-103 -521h-120l11 52q-49 -58 -129 -58q-73 0 -109 42.5t-36 102.5q0 45 15 122q17 86 36.5 136.5t49.5 78.5q54 51 134 51q81 0 121 -60l11 54h119zM355 344q0 31 -15.5 51.5t-48.5 20.5q-40 0 -66 -26q-33 -33 -52 -129q-10 -54 -10 -84q0 -31 15.5 -51.5
t48.5 -20.5q40 0 66 26q33 33 52 130q10 54 10 83zM495 601h-91l-60 94l-98 -94h-101l159 169h99z" />
    <glyph glyph-name="atilde.ss01" horiz-adv-x="536" 
d="M520 521l-103 -521h-120l11 52q-49 -58 -129 -58q-73 0 -109 42.5t-36 102.5q0 45 15 122q17 86 36.5 136.5t49.5 78.5q54 51 134 51q81 0 121 -60l11 54h119zM355 344q0 31 -15.5 51.5t-48.5 20.5q-40 0 -66 -26q-33 -33 -52 -129q-10 -54 -10 -84q0 -31 15.5 -51.5
t48.5 -20.5q40 0 66 26q33 33 52 130q10 54 10 83zM506 659q-55 -52 -111 -52q-40 0 -77 22q-28 17 -52 17q-31 0 -62 -31l-45 60q55 52 110 52q40 0 77 -22q28 -17 53 -17q30 0 62 30z" />
    <glyph glyph-name="adieresis.ss01" horiz-adv-x="536" 
d="M520 521l-103 -521h-120l11 52q-49 -58 -129 -58q-73 0 -109 42.5t-36 102.5q0 45 15 122q17 86 36.5 136.5t49.5 78.5q54 51 134 51q81 0 121 -60l11 54h119zM355 344q0 31 -15.5 51.5t-48.5 20.5q-40 0 -66 -26q-33 -33 -52 -129q-10 -54 -10 -84q0 -31 15.5 -51.5
t48.5 -20.5q40 0 66 26q33 33 52 130q10 54 10 83zM508 663q0 -27 -19 -46t-46 -19q-26 0 -45 19t-19 45q0 27 19 46t45 19q27 0 46 -19t19 -45zM292 663q0 -27 -19 -46t-45 -19q-27 0 -46 19t-19 45q0 27 19 46t46 19q26 0 45 -19t19 -45z" />
    <glyph glyph-name="aring.ss01" horiz-adv-x="536" 
d="M520 521l-103 -521h-120l11 52q-49 -58 -129 -58q-73 0 -109 42.5t-36 102.5q0 45 15 122q17 86 36.5 136.5t49.5 78.5q54 51 134 51q81 0 121 -60l11 54h119zM355 344q0 31 -15.5 51.5t-48.5 20.5q-40 0 -66 -26q-33 -33 -52 -129q-10 -54 -10 -84q0 -31 15.5 -51.5
t48.5 -20.5q40 0 66 26q33 33 52 130q10 54 10 83zM467 711q0 -54 -37 -90.5t-90 -36.5q-52 0 -89 36.5t-37 90.5q0 53 37 89.5t89 36.5q53 0 90 -36t37 -90zM399 711q0 23 -18 40t-41 17t-40.5 -17t-17.5 -40q0 -24 17.5 -41.5t40.5 -17.5t41 17.5t18 41.5z" />
    <glyph glyph-name="ae.ss01" horiz-adv-x="830" 
d="M793 341q0 -45 -16 -118h-316q-3 -18 -3 -36q0 -40 23.5 -64t68.5 -24q68 0 124 53l64 -82q-80 -76 -200 -76q-94 0 -136 67l-12 -61h-84l12 56q-50 -62 -138 -62q-69 0 -107.5 43t-38.5 111q0 44 14 113q19 93 39 140t48 75q54 51 137 51q84 0 121 -63l11 57h84l-11 -58
q46 64 138 64q65 0 121.5 -47t56.5 -139zM361 339q0 35 -18 56t-50 21q-41 0 -68 -27q-34 -34 -53 -128q-9 -47 -9 -78q0 -35 17.5 -56.5t49.5 -21.5q43 0 70 29q34 37 51 127q10 50 10 78zM675 341q0 40 -20.5 62t-54.5 22q-90 0 -123 -119h194q4 22 4 35z" />
    <glyph glyph-name="ccedilla.ss01" horiz-adv-x="458" 
d="M463 455l-93 -82q-32 43 -72 43q-42 0 -74 -33q-40 -42 -55 -122q-7 -40 -7 -67q0 -42 19 -65.5t55 -23.5q47 0 91 44l69 -89q-71 -66 -172 -66q-79 0 -133 49t-54 137q0 38 8 81q14 76 42.5 130.5t65.5 82.5t75.5 40.5t81.5 12.5q97 0 153 -72zM263 -117
q0 -51 -36.5 -81t-88.5 -30h-9l13 63h2q20 0 32 11t12 29q0 30 -32 33l13 63q39 -2 66.5 -25.5t27.5 -62.5z" />
    <glyph glyph-name="edieresis.ss01" horiz-adv-x="523" 
d="M486 341q0 -47 -16 -118h-312q-4 -24 -4 -37q0 -40 22.5 -63.5t66.5 -23.5q69 0 124 53l65 -82q-82 -76 -203 -76q-78 0 -135.5 44.5t-57.5 138.5q0 91 27.5 168.5t89.5 129.5t148 52q83 0 134 -51t51 -135zM368 341q0 40 -20 62t-54 22q-88 0 -120 -119h191q3 16 3 35z
M517 663q0 -27 -19 -46t-46 -19q-26 0 -45 19t-19 45q0 27 19 46t45 19q27 0 46 -19t19 -45zM301 663q0 -27 -19 -46t-45 -19q-27 0 -46 19t-19 45q0 27 19 46t46 19q26 0 45 -19t19 -45z" />
    <glyph glyph-name="idieresis.ss01" horiz-adv-x="262" 
d="M243 505l-101 -505h-124l101 505h124zM381 663q0 -27 -19 -46t-46 -19q-26 0 -45 19t-19 45q0 27 19 46t45 19q27 0 46 -19t19 -45zM165 663q0 -27 -19 -46t-45 -19q-27 0 -46 19t-19 45q0 27 19 46t46 19q26 0 45 -19t19 -45z" />
    <glyph glyph-name="odieresis.ss01" horiz-adv-x="514" 
d="M477 355q0 -37 -10 -94q-16 -81 -37 -127t-56 -80q-63 -60 -160 -60q-73 0 -125 44t-52 128q0 42 11 95q16 81 37 127t56 79q62 60 160 60q72 0 124 -44t52 -128zM354 341q0 37 -18 56t-48 19q-38 0 -64 -26q-33 -32 -53 -129q-11 -55 -11 -81q0 -36 18 -55.5t48 -19.5
q38 0 64 26q35 34 53 130q11 54 11 80zM512 663q0 -27 -19 -46t-46 -19q-26 0 -45 19t-19 45q0 27 19 46t45 19q27 0 46 -19t19 -45zM296 663q0 -27 -19 -46t-45 -19q-27 0 -46 19t-19 45q0 27 19 46t46 19q26 0 45 -19t19 -45z" />
    <glyph glyph-name="divide.ss01" 
d="M384 488q0 -34 -24 -58.5t-59 -24.5t-59 24.5t-24 58.5q0 35 24.5 59.5t58.5 24.5t58.5 -24.5t24.5 -59.5zM490 344l-23 -117h-429l23 117h429zM311 83q0 -35 -24.5 -59.5t-58.5 -24.5t-58 24.5t-24 59.5t24 59t58 24t58.5 -24t24.5 -59z" />
    <glyph glyph-name="udieresis.ss01" horiz-adv-x="544" 
d="M528 521l-104 -521h-119l9 50q-51 -56 -136 -56q-53 0 -93.5 36.5t-40.5 108.5q0 17 7 57l65 325h124l-64 -317q-4 -22 -4 -34q0 -32 18 -48.5t44 -16.5q34 0 64.5 22.5t41.5 77.5l64 316h124zM525 663q0 -27 -19 -46t-46 -19q-26 0 -45 19t-19 45q0 27 19 46t45 19
q27 0 46 -19t19 -45zM309 663q0 -27 -19 -46t-45 -19q-27 0 -46 19t-19 45q0 27 19 46t46 19q26 0 45 -19t19 -45z" />
    <glyph glyph-name="ydieresis.ss01" horiz-adv-x="464" 
d="M515 521l-325 -605q-20 -38 -43 -61q-46 -46 -124 -46h-48l23 112h28q26 0 41 12.5t30 41.5l33 62l-74 484h123l38 -336l167 336h131zM484 663q0 -27 -19 -46t-46 -19q-26 0 -45 19t-19 45q0 27 19 46t45 19q27 0 46 -19t19 -45zM268 663q0 -27 -19 -46t-45 -19
q-27 0 -46 19t-19 45q0 27 19 46t46 19q26 0 45 -19t19 -45z" />
    <glyph glyph-name="ij.ss01" horiz-adv-x="524" 
d="M243 505l-101 -505h-124l101 505h124zM288 667q0 -32 -23 -55t-55 -23t-55 23t-23 55t23 55t55 23t55 -23t23 -55zM550 667q0 -32 -23 -55t-55 -23t-55 23t-23 55t23 55t55 23t55 -23t23 -55zM505 505l-110 -553q-14 -69 -57 -108t-111 -39h-77l21 105h45q46 0 56 53
l109 542h124z" />
    <glyph glyph-name="Ydieresis.ss01" horiz-adv-x="550" 
d="M635 712l-286 -425l-58 -287h-132l59 292l-129 420h140l76 -295l184 295h146zM561 841q0 -27 -19 -46t-46 -19q-26 0 -45 19t-19 45q0 27 19 46t45 19q27 0 46 -19t19 -45zM345 841q0 -27 -19 -46t-45 -19q-27 0 -46 19t-19 45q0 27 19 46t46 19q26 0 45 -19t19 -45z" />
    <glyph glyph-name="dotaccent.ss01" horiz-adv-x="508" 
d="M398 669q0 -27 -18.5 -46t-45.5 -19t-45.5 19t-18.5 45q0 27 18.5 46t45.5 19t45.5 -19t18.5 -45z" />
    <glyph glyph-name="ogonek.ss01" horiz-adv-x="492" 
d="M291 -30l-13 -63q-21 0 -33.5 -11t-12.5 -29q0 -12 8.5 -22t23.5 -11l-13 -63q-39 2 -66.5 26t-27.5 62q0 51 36 81t89 30h9z" />
    <glyph glyph-name="ellipsis.ss01" horiz-adv-x="804" 
d="M713 80q0 -34 -24.5 -58.5t-58.5 -24.5t-58.5 24.5t-24.5 58.5q0 35 24.5 59.5t58.5 24.5t58.5 -24.5t24.5 -59.5zM188 80q0 -34 -24 -58.5t-59 -24.5t-59 24.5t-24 58.5q0 35 24.5 59.5t58.5 24.5t58.5 -24.5t24.5 -59.5zM451 80q0 -34 -24.5 -58.5t-59.5 -24.5
q-34 0 -58 24t-24 59t24 59.5t58 24.5q35 0 59.5 -25t24.5 -59z" />
    <glyph glyph-name="Euro.ss01" horiz-adv-x="586" 
d="M609 631l-98 -83q-39 54 -94 54q-52 0 -91 -39q-28 -28 -45 -90h153l-16 -78h-157l-15 -75h157l-15 -78h-153q-3 -26 -3 -38q0 -42 25.5 -68t70.5 -26q61 0 112 54l76 -93q-77 -77 -194 -77q-104 0 -163.5 58.5t-59.5 144.5q0 25 3 45h-68l15 78h65l15 75h-65l15 78h67
q29 111 85 167q77 78 194 78q63 0 106 -21t78 -66z" />
    <glyph glyph-name="dotmath.ss01" horiz-adv-x="280" 
d="M229 285q0 -35 -24.5 -59.5t-58.5 -24.5t-58.5 24.5t-24.5 59.5t24.5 59t58.5 24t58.5 -24t24.5 -59z" />
    <glyph glyph-name="fi.ss01" horiz-adv-x="576" 
d="M392 720l-21 -105h-44q-47 0 -57 -51l-12 -59h92l-19 -95h-92l-82 -410h-124l82 410h-51l19 95h51l15 72q28 143 170 143h73zM557 505l-101 -505h-124l101 505h124zM602 667q0 -32 -23 -55t-55 -23t-55 23t-23 55t23 55t55 23t55 -23t23 -55z" />
    <glyph glyph-name="exclamdown.case.ss01" horiz-adv-x="330" 
d="M241 490l-66 -490h-153l126 490h93zM296 641q0 -31 -21.5 -53t-52.5 -22t-52.5 22t-21.5 53t21.5 52.5t52.5 21.5t52.5 -21.5t21.5 -52.5z" />
    <glyph glyph-name="questiondown.case.ss01" horiz-adv-x="497" 
d="M423 188q-17 -98 -80.5 -146t-157.5 -48q-68 0 -116.5 43.5t-48.5 115.5q0 87 74 167l89 98q22 24 28 51l4 22h124l-7 -32q-13 -61 -54 -105l-89 -94q-44 -48 -44 -94q0 -26 16 -43.5t43 -17.5q79 0 95 83h124zM378 641q0 -31 -22 -53t-53 -22t-52.5 22t-21.5 53
t21.5 52.5t52.5 21.5t53 -21.5t22 -52.5z" />
    <glyph glyph-name="dieresis.lc.ss01" horiz-adv-x="514" 
d="M512 663q0 -27 -19 -46t-46 -19q-26 0 -45 19t-19 45q0 27 19 46t45 19q27 0 46 -19t19 -45zM296 663q0 -27 -19 -46t-45 -19q-27 0 -46 19t-19 45q0 27 19 46t46 19q26 0 45 -19t19 -45z" />
    <glyph glyph-name="dotaccent.lc.ss01" horiz-adv-x="508" 
d="M398 669q0 -27 -18.5 -46t-45.5 -19t-45.5 19t-18.5 45q0 27 18.5 46t45.5 19t45.5 -19t18.5 -45z" />
    <glyph glyph-name="diedot.lc.ss01" horiz-adv-x="514" 
d="M297 665q0 -27 -19 -46t-46 -19q-26 0 -45 19t-19 45q0 27 19 46t45 19q27 0 46 -19t19 -45z" />
    <glyph glyph-name="dieresis.uc.ss01" horiz-adv-x="611" 
d="M584 841q0 -27 -19 -46t-46 -19q-26 0 -45 19t-19 45q0 27 19 46t45 19q27 0 46 -19t19 -45zM368 841q0 -27 -19 -46t-45 -19q-27 0 -46 19t-19 45q0 27 19 46t46 19q26 0 45 -19t19 -45z" />
    <glyph glyph-name="dotaccent.uc.ss01" horiz-adv-x="475" 
d="M474 846q0 -27 -19 -46t-45 -19q-27 0 -46 19t-19 46q0 26 19 45t45 19q27 0 46 -19t19 -45z" />
    <glyph glyph-name="diedot.uc.ss01" horiz-adv-x="611" 
d="M370 842q0 -27 -19 -46t-46 -19q-26 0 -45 19t-19 46q0 26 19 45t45 19q27 0 46 -19t19 -45z" />
    <glyph glyph-name="caroncomma" horiz-adv-x="508" 
d="M767 740l-91 -165h-91l67 165h115z" />
    <glyph glyph-name="commaaccent" horiz-adv-x="271" 
d="M257 -57l-70 -144h-114l86 144h98z" />
    <glyph glyph-name="commaturn" horiz-adv-x="346" 
d="M495 768l-131 -167h-99l110 167h120z" />
    </font>
</defs>
</svg>
